<?xml version="1.0" standalone="no"?><!DOCTYPE svg PUBLIC "-//W3C//DTD SVG 1.1//EN" "http://www.w3.org/Graphics/SVG/1.1/DTD/svg11.dtd"><svg width="100%" height="100%" viewBox="0 0 78 78" version="1.1" xmlns="http://www.w3.org/2000/svg" xmlns:xlink="http://www.w3.org/1999/xlink" xml:space="preserve" style="fill-rule:evenodd;clip-rule:evenodd;stroke-linecap:round;stroke-linejoin:bevel;stroke-miterlimit:1.41421;"><path d="M73.425,39.093c0,18.907 -15.341,34.233 -34.245,34.233c-18.913,0 -34.252,-15.326 -34.252,-34.233c0,-18.917 15.339,-34.249 34.252,-34.249c18.904,0 34.245,15.332 34.245,34.249" style="fill:#e6e6e6;fill-rule:nonzero;"/><path d="M48.14,21.354l0.035,0.001l0.035,0.002l0.036,0.002l0.037,0.002l0.037,0.002l0.037,0.004l0.038,0.003l0.038,0.004l0.039,0.004l0.038,0.005l0.039,0.005l0.039,0.005l0.039,0.006l0.04,0.006l0.039,0.006l0.039,0.006l0.039,0.007l0.039,0.007l0.039,0.008l0.039,0.007l0.039,0.008l0.038,0.008l0.038,0.008l0.037,0.009l0.038,0.009l0.036,0.009l0.036,0.009l0.036,0.009l0.035,0.01l0.035,0.009l0.034,0.01l0.033,0.01l0.033,0.011l0.031,0.01l0.031,0.011l0.031,0.011l0.029,0.011l0.029,0.011l0.028,0.011l0.027,0.012l0.026,0.012l0.026,0.013l0.025,0.013l0.023,0.014l0.013,0.008l0.012,0.007l0.012,0.008l0.012,0.009l0.012,0.009l0.012,0.009l0.012,0.01l0.012,0.011l0.012,0.012l0.012,0.013l0.012,0.014l0.009,0.013l0.092,0.132l0.09,0.129l0.09,0.129l0.089,0.129l0.089,0.13l0.088,0.129l0.088,0.13l0.088,0.131l0.088,0.13l0.087,0.13l0.087,0.131l0.087,0.131l0.086,0.131l0.086,0.131l0.086,0.132l0.086,0.132l0.085,0.131l0.085,0.132l0.085,0.132l0.084,0.133l0.085,0.132l0.084,0.133l0.084,0.132l0.083,0.133l0.083,0.133l0.084,0.133l0.082,0.134l0.083,0.133l0.083,0.134l0.082,0.133l0.082,0.134l0.082,0.134l0.081,0.134l0.082,0.134l0.081,0.134l0.081,0.135l0.081,0.134l0.081,0.135l0.08,0.134l0.081,0.135l0.16,0.27l0.16,0.27l0.159,0.27l0.159,0.27l0.159,0.271l0.157,0.271l0.158,0.271l0.157,0.272l0.157,0.271l0.157,0.272l0.156,0.271l0.156,0.272l0.016,0.029l0.017,0.029l0.016,0.029l0.016,0.03l0.015,0.029l0.015,0.03l0.015,0.03l0.015,0.03l0.015,0.03l0.014,0.03l0.014,0.03l0.014,0.03l0.013,0.031l0.013,0.03l0.013,0.031l0.013,0.03l0.012,0.031l0.012,0.031l0.012,0.031l0.012,0.031l0.011,0.032l0.011,0.031l0.011,0.031l0.011,0.032l0.01,0.031l0.01,0.032l0.01,0.031l0.009,0.032l0.01,0.032l0.009,0.032l0.008,0.032l0.009,0.032l0.008,0.032l0.008,0.032l0.007,0.033l0.008,0.032l0.007,0.032l0.007,0.033l0.006,0.032l0.006,0.033l0.006,0.033l0.006,0.032l0.006,0.033l0.005,0.033l0.005,0.033l0.004,0.032l0.005,0.033l0.004,0.033l0.004,0.033l0.003,0.033l0.003,0.034l0.003,0.033l0.003,0.033l0.003,0.033l0.002,0.033l0.002,0.034l0.001,0.033l0.001,0.033l0.002,0.033l0,0.034l0.001,0.033l0,0.034l0,0.033l-0.001,0.033l-0.161,10.453l0.446,7.153l0.002,0.028l0.001,0.029l0.001,0.029l0.001,0.028l0.001,0.029l0.001,0.029l0,0.028l0,0.029l0,0.028l0,0.029l0,0.028l-0.001,0.029l-0.001,0.028l-0.001,0.029l-0.001,0.028l-0.002,0.028l-0.002,0.029l-0.002,0.028l-0.002,0.028l-0.002,0.029l-0.003,0.028l-0.002,0.028l-0.003,0.028l-0.004,0.028l-0.003,0.028l-0.004,0.028l-0.003,0.028l-0.004,0.028l-0.005,0.028l-0.004,0.028l-0.005,0.028l-0.004,0.027l-0.005,0.028l-0.006,0.028l-0.005,0.027l-0.006,0.028l-0.005,0.027l-0.006,0.028l-0.007,0.027l-0.006,0.027l-0.007,0.028l-0.007,0.027l-0.007,0.027l-0.007,0.027l-0.007,0.027l-0.008,0.027l-0.008,0.027l-0.007,0.027l-0.009,0.027l-0.008,0.027l-0.009,0.026l-0.008,0.027l-0.009,0.026l-0.01,0.027l-0.009,0.026l-0.009,0.026l-0.01,0.027l-0.01,0.026l-0.01,0.026l-0.01,0.026l-0.011,0.026l-0.011,0.026l-0.01,0.026l-0.011,0.025l-0.012,0.026l-0.011,0.025l-0.012,0.026l-0.012,0.025l-0.012,0.025l-0.012,0.026l-0.012,0.025l-0.013,0.025l-0.012,0.025l-0.013,0.025l-0.013,0.024l-0.014,0.025l-0.013,0.024l-0.014,0.025l-0.013,0.024l-0.014,0.025l-0.015,0.024l-0.014,0.024l-0.015,0.024l-0.014,0.024l-0.015,0.023l-0.015,0.024l-0.015,0.024l-0.016,0.023l-0.015,0.023l-0.016,0.024l-0.016,0.023l-0.016,0.023l-0.017,0.023l-0.016,0.023l-0.017,0.022l-0.017,0.023l-0.017,0.022l-0.017,0.023l-0.017,0.022l-0.018,0.022l-0.017,0.022l-0.018,0.022l-0.018,0.021l-0.018,0.022l-0.019,0.022l-0.018,0.021l-0.019,0.021l-0.019,0.021l-0.019,0.021l-0.019,0.021l-0.019,0.021l-0.02,0.021l-0.02,0.02l-0.019,0.02l-0.02,0.021l-0.021,0.02l-0.02,0.02l-0.02,0.019l-0.021,0.02l-0.021,0.019l-0.021,0.02l-0.021,0.019l-0.021,0.019l-0.022,0.019l-0.022,0.019l-0.021,0.019l-0.022,0.018l-0.022,0.018l-9.186,7.566l-0.025,0.021l-0.026,0.02l-0.026,0.02l-0.026,0.02l-0.026,0.02l-0.026,0.019l-0.027,0.019l-0.026,0.019l-0.027,0.018l-0.027,0.018l-0.028,0.018l-0.027,0.018l-0.027,0.017l-0.028,0.017l-0.028,0.017l-0.028,0.016l-0.028,0.016l-0.028,0.016l-0.029,0.016l-0.029,0.015l-0.028,0.015l-0.029,0.015l-0.029,0.014l-0.029,0.014l-0.03,0.014l-0.029,0.013l-0.03,0.013l-0.029,0.013l-0.03,0.013l-0.03,0.012l-0.03,0.012l-0.031,0.012l-0.03,0.011l-0.03,0.011l-0.031,0.011l-0.03,0.01l-0.031,0.01l-0.031,0.01l-0.031,0.009l-0.031,0.009l-0.031,0.009l-0.031,0.009l-0.032,0.008l-0.031,0.008l-0.032,0.007l-0.031,0.008l-0.032,0.006l-0.032,0.007l-0.032,0.006l-0.032,0.006l-0.032,0.006l-0.032,0.005l-0.032,0.005l-0.032,0.005l-0.032,0.004l-0.033,0.004l-0.032,0.004l-0.033,0.003l-0.032,0.003l-0.033,0.003l-0.032,0.002l-0.033,0.002l-0.033,0.002l-0.032,0.001l-3.998,0.142l-0.927,0l-3.998,-0.142l-0.032,-0.001l-0.033,-0.002l-0.033,-0.002l-0.032,-0.002l-0.033,-0.003l-0.032,-0.003l-0.033,-0.003l-0.032,-0.004l-0.033,-0.004l-0.032,-0.004l-0.032,-0.005l-0.032,-0.005l-0.032,-0.005l-0.032,-0.006l-0.032,-0.006l-0.032,-0.006l-0.032,-0.007l-0.032,-0.006l-0.031,-0.008l-0.032,-0.007l-0.031,-0.008l-0.032,-0.008l-0.031,-0.009l-0.031,-0.009l-0.031,-0.009l-0.031,-0.009l-0.031,-0.01l-0.031,-0.01l-0.03,-0.01l-0.031,-0.011l-0.03,-0.011l-0.031,-0.011l-0.03,-0.012l-0.03,-0.012l-0.03,-0.012l-0.03,-0.013l-0.029,-0.013l-0.03,-0.013l-0.029,-0.013l-0.03,-0.014l-0.029,-0.014l-0.029,-0.014l-0.029,-0.015l-0.029,-0.015l-0.028,-0.015l-0.029,-0.016l-0.028,-0.016l-0.028,-0.016l-0.028,-0.016l-0.028,-0.017l-0.028,-0.017l-0.027,-0.017l-0.028,-0.018l-0.027,-0.018l-0.027,-0.018l-0.027,-0.018l-0.026,-0.019l-0.027,-0.019l-0.026,-0.019l-0.026,-0.02l-0.026,-0.02l-0.026,-0.02l-0.026,-0.02l-0.025,-0.021l-9.186,-7.566l-0.022,-0.018l-0.022,-0.018l-0.021,-0.019l-0.022,-0.019l-0.022,-0.019l-0.021,-0.019l-0.021,-0.019l-0.021,-0.02l-0.021,-0.019l-0.021,-0.02l-0.02,-0.02l-0.02,-0.019l-0.021,-0.02l-0.02,-0.021l-0.02,-0.02l-0.019,-0.02l-0.02,-0.021l-0.019,-0.021l-0.019,-0.021l-0.019,-0.021l-0.019,-0.021l-0.019,-0.021l-0.018,-0.021l-0.019,-0.022l-0.018,-0.022l-0.018,-0.021l-0.018,-0.022l-0.018,-0.022l-0.017,-0.022l-0.017,-0.022l-0.018,-0.023l-0.017,-0.022l-0.016,-0.023l-0.017,-0.022l-0.016,-0.023l-0.017,-0.023l-0.016,-0.023l-0.016,-0.023l-0.016,-0.024l-0.015,-0.023l-0.016,-0.023l-0.015,-0.024l-0.015,-0.024l-0.015,-0.023l-0.015,-0.024l-0.014,-0.024l-0.014,-0.024l-0.015,-0.024l-0.014,-0.025l-0.013,-0.024l-0.014,-0.025l-0.013,-0.024l-0.014,-0.025l-0.013,-0.024l-0.013,-0.025l-0.012,-0.025l-0.013,-0.025l-0.012,-0.025l-0.013,-0.026l-0.012,-0.025l-0.011,-0.025l-0.012,-0.026l-0.011,-0.025l-0.012,-0.026l-0.011,-0.025l-0.01,-0.026l-0.011,-0.026l-0.011,-0.026l-0.01,-0.026l-0.01,-0.026l-0.01,-0.026l-0.01,-0.027l-0.009,-0.026l-0.01,-0.026l-0.009,-0.027l-0.009,-0.026l-0.008,-0.027l-0.009,-0.026l-0.008,-0.027l-0.009,-0.027l-0.008,-0.027l-0.007,-0.027l-0.008,-0.027l-0.007,-0.027l-0.008,-0.027l-0.007,-0.027l-0.006,-0.027l-0.007,-0.028l-0.006,-0.027l-0.007,-0.027l-0.006,-0.028l-0.005,-0.027l-0.006,-0.028l-0.005,-0.027l-0.006,-0.028l-0.005,-0.028l-0.005,-0.027l-0.004,-0.028l-0.005,-0.028l-0.004,-0.028l-0.004,-0.028l-0.004,-0.028l-0.003,-0.028l-0.003,-0.028l-0.004,-0.028l-0.003,-0.028l-0.002,-0.028l-0.003,-0.028l-0.002,-0.029l-0.002,-0.028l-0.002,-0.028l-0.002,-0.029l-0.002,-0.028l-0.001,-0.028l-0.001,-0.029l-0.001,-0.028l-0.001,-0.029l0,-0.028l0,-0.029l0,-0.028l0,-0.029l0,-0.028l0.001,-0.029l0.001,-0.029l0.001,-0.028l0.001,-0.029l0.001,-0.029l0.002,-0.028l0.446,-7.153l-0.059,-3.842l-0.095,-6.172l-0.001,-0.046l0,-0.047l0,-0.047l0.001,-0.047l0.001,-0.047l0.001,-0.047l0.002,-0.047l0.002,-0.047l0.003,-0.047l0.003,-0.046l0.004,-0.047l0.003,-0.047l0.005,-0.046l0.004,-0.047l0.005,-0.046l0.005,-0.047l0.006,-0.046l0.006,-0.046l0.007,-0.046l0.007,-0.047l0.007,-0.046l0.008,-0.046l0.008,-0.046l0.008,-0.046l0.009,-0.045l0.009,-0.046l0.01,-0.046l0.01,-0.045l0.01,-0.046l0.011,-0.045l0.011,-0.045l0.012,-0.046l0.012,-0.045l0.012,-0.045l0.013,-0.045l0.013,-0.044l0.013,-0.045l0.014,-0.045l0.014,-0.044l0.015,-0.044l0.014,-0.044l0.016,-0.045l0.015,-0.044l0.016,-0.043l0.017,-0.044l0.016,-0.044l0.018,-0.043l0.017,-0.043l0.018,-0.044l0.018,-0.043l0.019,-0.043l0.019,-0.042l0.019,-0.043l0.02,-0.042l0.02,-0.043l0.02,-0.042l0.021,-0.042l0.021,-0.042l0.022,-0.041l0.022,-0.042l0.022,-0.041l0.022,-0.041l0.023,-0.042l0.023,-0.04l0.15,-0.26l0.15,-0.259l0.15,-0.259l0.15,-0.26l0.15,-0.259l0.151,-0.259l0.152,-0.258l0.151,-0.259l0.153,-0.258l0.152,-0.258l0.154,-0.258l0.153,-0.257l0.155,-0.257l0.077,-0.128l0.078,-0.129l0.078,-0.128l0.078,-0.128l0.078,-0.128l0.078,-0.128l0.078,-0.128l0.079,-0.127l0.079,-0.128l0.079,-0.127l0.079,-0.128l0.08,-0.127l0.079,-0.127l0.08,-0.127l0.08,-0.127l0.081,-0.126l0.08,-0.127l0.081,-0.126l0.081,-0.126l0.081,-0.127l0.081,-0.125l0.082,-0.126l0.082,-0.126l0.082,-0.125l0.083,-0.126l0.082,-0.125l0.083,-0.125l0.084,-0.125l0.083,-0.124l0.084,-0.125l0.084,-0.124l0.084,-0.124l0.085,-0.124l0.085,-0.124l0.085,-0.123l0.086,-0.124l0.086,-0.123l0.088,-0.126l0.009,-0.013l0.012,-0.014l0.012,-0.013l0.012,-0.012l0.012,-0.011l0.012,-0.01l0.012,-0.009l0.012,-0.009l0.012,-0.009l0.012,-0.008l0.012,-0.007l0.013,-0.008l0.023,-0.014l0.025,-0.013l0.026,-0.013l0.026,-0.012l0.027,-0.012l0.028,-0.011l0.029,-0.011l0.029,-0.011l0.031,-0.011l0.031,-0.011l0.031,-0.01l0.033,-0.011l0.033,-0.01l0.034,-0.01l0.035,-0.009l0.035,-0.01l0.035,-0.009l0.037,-0.009l0.036,-0.009l0.038,-0.009l0.037,-0.009l0.038,-0.008l0.038,-0.008l0.039,-0.008l0.039,-0.007l0.039,-0.008l0.039,-0.007l0.039,-0.007l0.039,-0.006l0.039,-0.006l0.04,-0.006l0.039,-0.006l0.039,-0.005l0.039,-0.005l0.038,-0.005l0.039,-0.004l0.038,-0.004l0.038,-0.003l0.037,-0.004l0.037,-0.002l0.036,-0.002l0.037,-0.002l0.035,-0.002l0.035,-0.001l0.035,0l0.034,0l0.033,0.001l0.033,0.001l0.032,0.002l0.032,0.002l0.031,0.003l0.03,0.004l0.016,0.003l0.015,0.002l0.015,0.003l0.015,0.003l0.015,0.003l0.015,0.004l0.015,0.004l0.015,0.004l0.015,0.005l0.015,0.005l0.015,0.006l0.015,0.006l0.038,0.017l0.036,0.017l0.035,0.017l0.034,0.018l0.033,0.018l0.032,0.019l0.031,0.018l0.031,0.019l0.029,0.02l0.028,0.02l0.028,0.02l0.026,0.021l0.026,0.021l0.025,0.022l0.024,0.022l0.023,0.022l0.022,0.022l0.021,0.023l0.021,0.024l0.019,0.023l0.019,0.024l0.018,0.024l0.018,0.024l0.016,0.025l0.016,0.024l0.015,0.025l0.015,0.025l0.013,0.025l0.014,0.025l0.012,0.025l0.012,0.025l0.012,0.025l0.011,0.025l0.011,0.025l0.01,0.026l0.011,0.025l0.009,0.025l0.01,0.026l0.019,0.05l0.018,0.051l0.018,0.051l0.018,0.051l0.019,0.052l0.019,0.053l0.01,0.027l0.01,0.026l0.01,0.027l0.011,0.028l0.011,0.027l0.012,0.028l0.011,0.028l0.013,0.028l0.012,0.028l0.014,0.029l0.013,0.029l0.015,0.03l0.014,0.029l0.016,0.03l0.014,0.028l0.015,0.027l0.016,0.027l0.016,0.026l0.016,0.027l0.017,0.026l0.018,0.027l0.018,0.026l0.018,0.026l0.019,0.026l0.019,0.026l0.02,0.026l0.019,0.026l0.021,0.026l0.02,0.025l0.021,0.026l0.022,0.025l0.021,0.026l0.022,0.025l0.022,0.025l0.023,0.026l0.022,0.025l0.046,0.05l0.047,0.051l0.047,0.05l0.025,0.027l14.115,0l0.025,-0.027l0.047,-0.05l0.047,-0.051l0.046,-0.05l0.022,-0.025l0.023,-0.026l0.022,-0.025l0.022,-0.025l0.021,-0.026l0.022,-0.025l0.021,-0.026l0.02,-0.025l0.02,-0.026l0.02,-0.026l0.02,-0.026l0.019,-0.026l0.019,-0.026l0.018,-0.026l0.018,-0.026l0.017,-0.027l0.017,-0.026l0.017,-0.027l0.016,-0.026l0.015,-0.027l0.015,-0.027l0.015,-0.028l0.016,-0.03l0.014,-0.03l0.015,-0.029l0.013,-0.029l0.014,-0.029l0.012,-0.028l0.013,-0.028l0.011,-0.028l0.012,-0.028l0.011,-0.027l0.01,-0.028l0.011,-0.027l0.01,-0.026l0.01,-0.027l0.019,-0.053l0.019,-0.052l0.018,-0.051l0.018,-0.051l0.018,-0.051l0.019,-0.05l0.009,-0.026l0.01,-0.025l0.01,-0.025l0.011,-0.026l0.011,-0.025l0.011,-0.025l0.012,-0.025l0.012,-0.025l0.012,-0.025l0.014,-0.025l0.013,-0.025l0.015,-0.025l0.015,-0.025l0.016,-0.024l0.016,-0.025l0.018,-0.024l0.018,-0.024l0.018,-0.024l0.02,-0.023l0.021,-0.024l0.021,-0.023l0.022,-0.022l0.023,-0.022l0.024,-0.022l0.025,-0.022l0.026,-0.021l0.026,-0.021l0.028,-0.02l0.028,-0.02l0.029,-0.02l0.031,-0.019l0.031,-0.018l0.032,-0.019l0.033,-0.018l0.034,-0.018l0.035,-0.017l0.036,-0.017l0.038,-0.017l0.015,-0.006l0.015,-0.006l0.015,-0.005l0.015,-0.005l0.015,-0.004l0.015,-0.004l0.015,-0.004l0.014,-0.003l0.015,-0.003l0.016,-0.003l0.015,-0.002l0.016,-0.003l0.03,-0.004l0.031,-0.003l0.032,-0.002l0.032,-0.002l0.033,-0.001l0.033,-0.001l0.034,0l0.035,0ZM29.81,21.834l-0.029,0.001l-0.029,0.001l-0.031,0.002l-0.031,0.002l-0.032,0.002l-0.033,0.003l-0.033,0.003l-0.034,0.003l-0.034,0.004l-0.035,0.004l-0.035,0.005l-0.035,0.004l-0.035,0.005l-0.036,0.006l-0.036,0.006l-0.036,0.006l-0.035,0.006l-0.036,0.006l-0.036,0.007l-0.035,0.007l-0.035,0.007l-0.035,0.007l-0.034,0.008l-0.034,0.008l-0.034,0.008l-0.033,0.008l-0.032,0.008l-0.032,0.008l-0.031,0.008l-0.03,0.009l-0.029,0.008l-0.028,0.009l-0.028,0.009l-0.026,0.008l-0.025,0.009l-0.024,0.008l-0.022,0.009l-0.021,0.008l-0.02,0.008l-0.018,0.008l-0.016,0.007l-0.014,0.007l-0.012,0.007l-0.011,0.006l-0.003,0.002l-0.003,0.002l-0.075,0.107l-0.085,0.122l-0.085,0.123l-0.085,0.122l-0.084,0.123l-0.084,0.123l-0.084,0.123l-0.083,0.124l-0.083,0.123l-0.083,0.124l-0.083,0.124l-0.082,0.124l-0.083,0.124l-0.081,0.125l-0.082,0.125l-0.082,0.125l-0.081,0.125l-0.081,0.125l-0.08,0.125l-0.081,0.126l-0.08,0.125l-0.08,0.126l-0.08,0.126l-0.08,0.126l-0.079,0.126l-0.079,0.127l-0.079,0.126l-0.079,0.127l-0.079,0.127l-0.078,0.127l-0.079,0.127l-0.078,0.127l-0.078,0.127l-0.078,0.128l-0.077,0.127l-0.078,0.128l-0.077,0.128l-0.077,0.128l-0.154,0.256l-0.153,0.256l-0.153,0.257l-0.152,0.257l-0.152,0.258l-0.151,0.257l-0.151,0.259l-0.151,0.258l-0.15,0.258l-0.15,0.259l-0.15,0.259l-0.149,0.259l-0.149,0.259l-0.022,0.038l-0.021,0.037l-0.02,0.038l-0.021,0.038l-0.02,0.037l-0.019,0.039l-0.02,0.038l-0.019,0.038l-0.018,0.039l-0.019,0.038l-0.018,0.039l-0.017,0.039l-0.018,0.039l-0.017,0.039l-0.016,0.04l-0.017,0.039l-0.016,0.04l-0.015,0.039l-0.016,0.04l-0.015,0.04l-0.014,0.04l-0.014,0.04l-0.014,0.041l-0.014,0.04l-0.013,0.041l-0.013,0.04l-0.013,0.041l-0.012,0.041l-0.012,0.041l-0.011,0.041l-0.012,0.041l-0.011,0.041l-0.01,0.041l-0.01,0.042l-0.01,0.041l-0.01,0.042l-0.009,0.041l-0.008,0.042l-0.009,0.042l-0.008,0.041l-0.008,0.042l-0.007,0.042l-0.007,0.042l-0.007,0.043l-0.006,0.042l-0.006,0.042l-0.006,0.042l-0.005,0.043l-0.005,0.042l-0.004,0.042l-0.005,0.043l-0.003,0.043l-0.004,0.042l-0.003,0.043l-0.003,0.043l-0.002,0.042l-0.002,0.043l-0.002,0.043l-0.001,0.043l-0.001,0.043l-0.001,0.042l0,0.043l0,0.043l0.001,0.044l0.095,6.171l0.059,3.86l-0.447,7.171l-0.001,0.026l-0.002,0.025l-0.001,0.025l-0.001,0.025l0,0.025l-0.001,0.025l0,0.025l0,0.025l0,0.025l0,0.025l0,0.025l0.001,0.025l0.001,0.025l0.001,0.024l0.001,0.025l0.001,0.025l0.002,0.025l0.001,0.025l0.002,0.024l0.002,0.025l0.002,0.025l0.003,0.024l0.002,0.025l0.003,0.024l0.003,0.025l0.003,0.024l0.004,0.025l0.003,0.024l0.004,0.025l0.004,0.024l0.004,0.024l0.004,0.025l0.004,0.024l0.005,0.024l0.005,0.024l0.005,0.024l0.005,0.024l0.005,0.024l0.005,0.024l0.006,0.024l0.006,0.024l0.006,0.024l0.006,0.024l0.006,0.023l0.007,0.024l0.006,0.023l0.007,0.024l0.007,0.024l0.007,0.023l0.007,0.023l0.008,0.024l0.008,0.023l0.007,0.023l0.008,0.023l0.009,0.023l0.008,0.023l0.009,0.023l0.008,0.023l0.009,0.023l0.009,0.023l0.009,0.022l0.01,0.023l0.009,0.023l0.01,0.022l0.01,0.022l0.01,0.023l0.01,0.022l0.01,0.022l0.01,0.022l0.011,0.022l0.011,0.022l0.011,0.022l0.011,0.022l0.011,0.022l0.012,0.021l0.011,0.022l0.012,0.021l0.012,0.022l0.012,0.021l0.012,0.021l0.013,0.021l0.012,0.021l0.013,0.021l0.013,0.021l0.013,0.021l0.013,0.021l0.013,0.02l0.014,0.021l0.014,0.02l0.013,0.021l0.014,0.02l0.014,0.02l0.015,0.02l0.014,0.02l0.015,0.02l0.014,0.02l0.015,0.019l0.015,0.02l0.015,0.019l0.016,0.019l0.015,0.02l0.016,0.019l0.015,0.019l0.016,0.019l0.016,0.019l0.017,0.018l0.016,0.019l0.016,0.018l0.017,0.019l0.017,0.018l0.017,0.018l0.017,0.018l0.017,0.018l0.017,0.018l0.018,0.017l0.018,0.018l0.017,0.017l0.018,0.018l0.018,0.017l0.019,0.017l0.018,0.017l0.019,0.017l0.018,0.016l0.019,0.017l0.019,0.016l0.019,0.017l0.019,0.016l0.02,0.016l9.185,7.565l0.022,0.018l0.021,0.017l0.022,0.018l0.022,0.016l0.023,0.017l0.022,0.016l0.022,0.017l0.023,0.016l0.023,0.015l0.023,0.016l0.023,0.015l0.023,0.015l0.024,0.014l0.023,0.015l0.024,0.014l0.024,0.014l0.023,0.014l0.024,0.013l0.025,0.013l0.024,0.013l0.024,0.013l0.025,0.012l0.025,0.013l0.024,0.011l0.025,0.012l0.025,0.012l0.025,0.011l0.026,0.011l0.025,0.01l0.025,0.011l0.026,0.01l0.026,0.01l0.025,0.009l0.026,0.01l0.026,0.009l0.026,0.009l0.026,0.008l0.026,0.008l0.027,0.008l0.026,0.008l0.027,0.008l0.026,0.007l0.027,0.007l0.026,0.007l0.027,0.006l0.027,0.006l0.027,0.006l0.027,0.006l0.027,0.005l0.027,0.005l0.027,0.005l0.028,0.004l0.027,0.004l0.027,0.004l0.028,0.004l0.027,0.003l0.028,0.004l0.027,0.002l0.028,0.003l0.027,0.002l0.028,0.002l0.028,0.002l0.028,0.001l0.028,0.001l3.989,0.142l0.909,0l3.989,-0.142l0.028,-0.001l0.028,-0.001l0.028,-0.002l0.028,-0.002l0.027,-0.002l0.028,-0.003l0.027,-0.002l0.028,-0.004l0.027,-0.003l0.028,-0.004l0.027,-0.004l0.027,-0.004l0.028,-0.004l0.027,-0.005l0.027,-0.005l0.027,-0.005l0.027,-0.006l0.027,-0.006l0.027,-0.006l0.026,-0.006l0.027,-0.007l0.027,-0.007l0.026,-0.007l0.027,-0.008l0.026,-0.008l0.027,-0.008l0.026,-0.008l0.026,-0.008l0.026,-0.009l0.026,-0.009l0.026,-0.01l0.025,-0.009l0.026,-0.01l0.026,-0.01l0.025,-0.011l0.025,-0.01l0.026,-0.011l0.025,-0.011l0.025,-0.012l0.025,-0.012l0.024,-0.011l0.025,-0.013l0.025,-0.012l0.024,-0.013l0.024,-0.013l0.024,-0.013l0.024,-0.013l0.024,-0.014l0.024,-0.014l0.024,-0.014l0.023,-0.015l0.024,-0.014l0.023,-0.015l0.023,-0.015l0.023,-0.016l0.023,-0.015l0.023,-0.016l0.022,-0.017l0.022,-0.016l0.023,-0.017l0.022,-0.016l0.022,-0.018l0.021,-0.017l0.022,-0.018l9.185,-7.565l0.02,-0.016l0.019,-0.016l0.019,-0.017l0.019,-0.016l0.019,-0.017l0.018,-0.016l0.019,-0.017l0.018,-0.017l0.018,-0.017l0.019,-0.017l0.018,-0.018l0.017,-0.017l0.018,-0.018l0.017,-0.017l0.018,-0.018l0.017,-0.018l0.017,-0.018l0.017,-0.018l0.017,-0.018l0.016,-0.019l0.017,-0.018l0.016,-0.019l0.017,-0.018l0.016,-0.019l0.015,-0.019l0.016,-0.019l0.016,-0.019l0.015,-0.02l0.016,-0.019l0.015,-0.019l0.015,-0.02l0.015,-0.019l0.014,-0.02l0.015,-0.02l0.014,-0.02l0.015,-0.02l0.014,-0.02l0.014,-0.02l0.013,-0.021l0.014,-0.02l0.014,-0.021l0.013,-0.02l0.013,-0.021l0.013,-0.021l0.013,-0.021l0.013,-0.021l0.012,-0.021l0.013,-0.021l0.012,-0.021l0.012,-0.021l0.012,-0.022l0.012,-0.021l0.011,-0.022l0.012,-0.021l0.011,-0.022l0.011,-0.022l0.011,-0.022l0.011,-0.022l0.01,-0.022l0.011,-0.022l0.01,-0.022l0.01,-0.022l0.01,-0.023l0.01,-0.022l0.01,-0.022l0.009,-0.023l0.01,-0.023l0.009,-0.022l0.009,-0.023l0.009,-0.023l0.008,-0.023l0.009,-0.023l0.008,-0.023l0.008,-0.023l0.008,-0.023l0.008,-0.023l0.008,-0.023l0.007,-0.024l0.008,-0.023l0.007,-0.023l0.007,-0.024l0.007,-0.024l0.006,-0.023l0.007,-0.024l0.006,-0.023l0.006,-0.024l0.006,-0.024l0.006,-0.024l0.006,-0.024l0.005,-0.024l0.005,-0.024l0.005,-0.024l0.005,-0.024l0.005,-0.024l0.005,-0.024l0.004,-0.024l0.004,-0.025l0.004,-0.024l0.004,-0.024l0.004,-0.025l0.003,-0.024l0.004,-0.025l0.003,-0.024l0.003,-0.025l0.002,-0.024l0.003,-0.025l0.002,-0.024l0.003,-0.025l0.002,-0.025l0.002,-0.024l0.001,-0.025l0.002,-0.025l0.001,-0.025l0.001,-0.025l0.001,-0.024l0.001,-0.025l0.001,-0.025l0,-0.025l0,-0.025l0,-0.025l0,-0.025l0,-0.025l-0.001,-0.025l0,-0.025l-0.001,-0.025l-0.001,-0.025l-0.002,-0.025l-0.001,-0.026l-0.447,-7.171l0.162,-10.47l0,-0.03l0,-0.03l0,-0.029l-0.001,-0.029l0,-0.03l-0.001,-0.029l-0.001,-0.029l-0.002,-0.03l-0.001,-0.029l-0.002,-0.029l-0.002,-0.029l-0.003,-0.029l-0.002,-0.029l-0.003,-0.03l-0.003,-0.029l-0.004,-0.029l-0.003,-0.029l-0.004,-0.028l-0.004,-0.029l-0.005,-0.029l-0.004,-0.029l-0.005,-0.029l-0.005,-0.029l-0.005,-0.028l-0.006,-0.029l-0.005,-0.028l-0.006,-0.029l-0.007,-0.028l-0.006,-0.029l-0.007,-0.028l-0.007,-0.029l-0.007,-0.028l-0.007,-0.028l-0.008,-0.028l-0.008,-0.028l-0.008,-0.028l-0.008,-0.028l-0.009,-0.028l-0.009,-0.028l-0.009,-0.027l-0.009,-0.028l-0.01,-0.028l-0.009,-0.027l-0.01,-0.027l-0.011,-0.028l-0.01,-0.027l-0.011,-0.027l-0.011,-0.027l-0.011,-0.027l-0.011,-0.027l-0.012,-0.027l-0.012,-0.027l-0.012,-0.026l-0.012,-0.027l-0.012,-0.026l-0.013,-0.027l-0.013,-0.026l-0.013,-0.026l-0.014,-0.026l-0.013,-0.026l-0.014,-0.026l-0.014,-0.026l-0.015,-0.026l-0.015,-0.026l-0.155,-0.271l-0.156,-0.271l-0.157,-0.271l-0.156,-0.271l-0.157,-0.271l-0.157,-0.271l-0.158,-0.27l-0.158,-0.27l-0.158,-0.27l-0.159,-0.269l-0.159,-0.269l-0.16,-0.269l-0.081,-0.134l-0.08,-0.135l-0.08,-0.134l-0.081,-0.134l-0.081,-0.133l-0.081,-0.134l-0.081,-0.134l-0.081,-0.133l-0.082,-0.133l-0.081,-0.133l-0.082,-0.134l-0.082,-0.132l-0.082,-0.133l-0.083,-0.133l-0.083,-0.132l-0.082,-0.133l-0.084,-0.132l-0.083,-0.132l-0.083,-0.132l-0.084,-0.131l-0.084,-0.132l-0.085,-0.131l-0.084,-0.131l-0.085,-0.131l-0.085,-0.131l-0.085,-0.131l-0.086,-0.13l-0.086,-0.13l-0.086,-0.13l-0.086,-0.13l-0.087,-0.13l-0.087,-0.129l-0.087,-0.129l-0.088,-0.13l-0.088,-0.128l-0.088,-0.129l-0.088,-0.128l-0.089,-0.128l-0.089,-0.128l-0.079,-0.113l-0.003,-0.002l-0.003,-0.002l-0.011,-0.006l-0.012,-0.007l-0.014,-0.007l-0.016,-0.007l-0.018,-0.008l-0.02,-0.008l-0.021,-0.008l-0.022,-0.009l-0.024,-0.008l-0.025,-0.009l-0.026,-0.008l-0.028,-0.009l-0.028,-0.009l-0.029,-0.008l-0.03,-0.009l-0.031,-0.008l-0.032,-0.008l-0.032,-0.008l-0.033,-0.008l-0.034,-0.008l-0.034,-0.008l-0.034,-0.008l-0.035,-0.007l-0.035,-0.007l-0.036,-0.007l-0.035,-0.007l-0.036,-0.006l-0.036,-0.006l-0.035,-0.006l-0.036,-0.006l-0.036,-0.006l-0.035,-0.005l-0.035,-0.004l-0.035,-0.005l-0.035,-0.004l-0.034,-0.004l-0.034,-0.003l-0.033,-0.003l-0.033,-0.003l-0.032,-0.002l-0.031,-0.002l-0.031,-0.002l-0.03,-0.001l-0.028,-0.001l-0.028,0l-0.026,0l-0.026,0.001l-0.024,0l-0.022,0.002l-0.021,0.001l-0.02,0.002l-0.018,0.003l-0.007,0.001l-0.008,0.001l-0.007,0.001l-0.006,0.002l-0.006,0.001l-0.005,0.001l-0.005,0.001l-0.003,0.001l-0.003,0.001l-0.003,0.001l-0.001,0.001l-0.002,0l-0.028,0.013l-0.028,0.013l-0.027,0.014l-0.026,0.013l-0.024,0.013l-0.023,0.013l-0.022,0.014l-0.021,0.013l-0.02,0.013l-0.018,0.013l-0.018,0.013l-0.017,0.014l-0.016,0.013l-0.015,0.013l-0.015,0.013l-0.014,0.014l-0.013,0.013l-0.012,0.014l-0.013,0.013l-0.011,0.014l-0.011,0.014l-0.011,0.014l-0.01,0.015l-0.01,0.015l-0.01,0.015l-0.01,0.016l-0.009,0.016l-0.009,0.016l-0.009,0.017l-0.009,0.018l-0.009,0.017l-0.008,0.019l-0.009,0.019l-0.008,0.019l-0.008,0.02l-0.009,0.021l-0.008,0.021l-0.008,0.022l-0.017,0.045l-0.017,0.048l-0.018,0.05l-0.018,0.052l-0.019,0.054l-0.021,0.056l-0.011,0.029l-0.011,0.03l-0.011,0.03l-0.012,0.03l-0.013,0.031l-0.013,0.032l-0.013,0.032l-0.014,0.032l-0.015,0.033l-0.015,0.033l-0.016,0.034l-0.017,0.035l-0.017,0.034l-0.019,0.036l-0.018,0.034l-0.019,0.034l-0.019,0.034l-0.02,0.033l-0.02,0.033l-0.021,0.032l-0.021,0.032l-0.022,0.032l-0.022,0.031l-0.022,0.031l-0.022,0.03l-0.023,0.031l-0.023,0.029l-0.024,0.03l-0.023,0.029l-0.024,0.029l-0.024,0.028l-0.024,0.029l-0.024,0.028l-0.024,0.027l-0.024,0.028l-0.025,0.027l-0.049,0.054l-0.049,0.053l-0.049,0.052l-0.049,0.052l-0.048,0.051l-0.037,0.032l-0.043,0.023l-0.046,0.015l-0.048,0.005l-14.321,0l-0.048,-0.005l-0.046,-0.015l-0.043,-0.023l-0.037,-0.032l-0.048,-0.051l-0.049,-0.052l-0.049,-0.052l-0.049,-0.053l-0.049,-0.054l-0.025,-0.027l-0.024,-0.028l-0.024,-0.027l-0.024,-0.028l-0.024,-0.029l-0.024,-0.028l-0.024,-0.029l-0.024,-0.029l-0.023,-0.03l-0.023,-0.029l-0.023,-0.031l-0.022,-0.03l-0.022,-0.031l-0.022,-0.031l-0.022,-0.032l-0.021,-0.032l-0.021,-0.032l-0.02,-0.033l-0.02,-0.033l-0.019,-0.034l-0.019,-0.034l-0.018,-0.034l-0.019,-0.036l-0.017,-0.034l-0.017,-0.035l-0.016,-0.034l-0.015,-0.033l-0.015,-0.033l-0.014,-0.032l-0.013,-0.032l-0.013,-0.032l-0.013,-0.031l-0.012,-0.03l-0.011,-0.03l-0.012,-0.03l-0.01,-0.029l-0.021,-0.056l-0.019,-0.054l-0.018,-0.052l-0.018,-0.05l-0.017,-0.048l-0.017,-0.045l-0.008,-0.022l-0.008,-0.021l-0.009,-0.021l-0.008,-0.02l-0.009,-0.019l-0.008,-0.019l-0.009,-0.019l-0.008,-0.017l-0.009,-0.018l-0.009,-0.017l-0.009,-0.016l-0.009,-0.016l-0.01,-0.016l-0.01,-0.015l-0.01,-0.015l-0.01,-0.015l-0.011,-0.014l-0.011,-0.014l-0.012,-0.014l-0.012,-0.013l-0.012,-0.014l-0.013,-0.013l-0.014,-0.014l-0.015,-0.013l-0.015,-0.013l-0.016,-0.013l-0.017,-0.014l-0.018,-0.013l-0.018,-0.013l-0.02,-0.013l-0.021,-0.013l-0.022,-0.014l-0.023,-0.013l-0.024,-0.013l-0.026,-0.013l-0.027,-0.014l-0.028,-0.013l-0.028,-0.013l-0.002,0l-0.001,-0.001l-0.003,-0.001l-0.003,-0.001l-0.004,-0.001l-0.004,-0.001l-0.005,-0.001l-0.006,-0.001l-0.006,-0.002l-0.007,-0.001l-0.008,-0.001l-0.007,-0.001l-0.018,-0.003l-0.02,-0.002l-0.021,-0.001l-0.022,-0.002l-0.024,0l-0.026,-0.001l-0.026,0l-0.028,0Z" style="fill:#000;"/><path d="M55.673,41.755l0.056,0.015l0.001,0l0.065,0.04l0.001,0l0.054,0.065l0,0.001l0.017,0.034l0.01,0.028l0.01,0.026l0.011,0.025l0.01,0.024l0.01,0.024l0.011,0.022l0.011,0.022l0.011,0.021l0.011,0.021l0.011,0.02l0.011,0.019l0.011,0.018l0.012,0.018l0.011,0.017l0.011,0.017l0.012,0.016l0.011,0.015l0.012,0.014l0.011,0.014l0.012,0.013l0.011,0.013l0.012,0.012l0.011,0.012l0.012,0.011l0.011,0.01l0.011,0.01l0.012,0.009l0.011,0.009l0.011,0.008l0.011,0.008l0.011,0.008l0.011,0.007l0.011,0.006l0.011,0.006l0.011,0.006l0.011,0.005l0.011,0.005l0.011,0.004l0.01,0.005l0.011,0.003l0.011,0.004l0.01,0.003l0.011,0.003l0.011,0.002l0.01,0.002l0.011,0.002l0.011,0.002l0.01,0.001l0.011,0.001l0.011,0l0.011,0.001l0.01,0l0.011,0l0.011,-0.001l0.011,-0.001l0.011,-0.001l0.011,-0.001l0.011,-0.002l0.012,-0.002l0.011,-0.002l0.011,-0.003l0.011,-0.003l0.012,-0.003l0.011,-0.004l0.012,-0.003l0.011,-0.005l0.012,-0.004l0.011,-0.005l0.012,-0.005l0.011,-0.005l0.012,-0.006l0.011,-0.006l0.012,-0.006l0.011,-0.007l0.012,-0.007l0.011,-0.007l0.012,-0.008l0.011,-0.008l0.012,-0.008l0.011,-0.008l0.011,-0.009l0.012,-0.009l0.011,-0.01l0.011,-0.009l0.011,-0.01l0.01,-0.01l0.011,-0.011l0.011,-0.011l0.01,-0.011l0.011,-0.011l0.01,-0.012l0.01,-0.012l0.01,-0.012l0.01,-0.012l0.01,-0.013l0.009,-0.012l0.009,-0.014l0.01,-0.013l0.009,-0.013l0.008,-0.014l0.009,-0.014l0.008,-0.015l0.009,-0.014l0.008,-0.015l0.007,-0.015l0.008,-0.015l0.007,-0.015l0.007,-0.015l0.007,-0.016l0.007,-0.016l0.006,-0.016l0.007,-0.016l0.005,-0.016l0.006,-0.017l0.005,-0.016l0.006,-0.017l0.004,-0.017l0.005,-0.017l0.004,-0.017l0.004,-0.018l0.004,-0.017l0.003,-0.018l0.003,-0.018l0.003,-0.018l0.003,-0.018l0.002,-0.018l0.002,-0.018l0.002,-0.02l0.005,-0.065l0.005,-0.069l0.007,-0.071l0.007,-0.074l0.007,-0.077l0.008,-0.079l0.008,-0.081l0.009,-0.084l0.018,-0.174l0.02,-0.182l0.021,-0.19l0.023,-0.197l0.047,-0.413l0.05,-0.434l0.025,-0.224l0.026,-0.227l0.025,-0.23l0.026,-0.233l0.024,-0.234l0.013,-0.117l0.012,-0.117l0.011,-0.118l0.012,-0.118l0.011,-0.118l0.012,-0.117l0.01,-0.117l0.011,-0.117l0.01,-0.117l0.01,-0.116l0.01,-0.116l0.009,-0.115l0.009,-0.114l0.008,-0.114l0.008,-0.113l0.007,-0.112l0.007,-0.11l0.006,-0.11l0.006,-0.109l0.006,-0.107l0.004,-0.106l0.005,-0.105l0.003,-0.103l0.003,-0.102l0.002,-0.1l0.002,-0.098l0.001,-0.096l0,-0.047l0,-0.047l0,-0.047l0,-0.046l-0.001,-0.045l-0.001,-0.045l-0.001,-0.036l-0.001,-0.034l-0.002,-0.033l-0.002,-0.032l-0.003,-0.031l-0.003,-0.03l-0.004,-0.028l-0.004,-0.028l-0.005,-0.027l-0.004,-0.025l-0.006,-0.024l-0.005,-0.023l-0.006,-0.023l-0.006,-0.021l-0.006,-0.02l-0.007,-0.019l-0.006,-0.019l-0.007,-0.017l-0.008,-0.016l-0.007,-0.016l-0.007,-0.015l-0.008,-0.013l-0.007,-0.013l-0.008,-0.013l-0.008,-0.011l-0.007,-0.011l-0.008,-0.011l-0.008,-0.009l-0.008,-0.01l-0.008,-0.008l-0.009,-0.008l-0.008,-0.008l-0.008,-0.007l-0.009,-0.007l-0.008,-0.007l-0.009,-0.006l-0.009,-0.006l-0.009,-0.005l-0.009,-0.006l-0.01,-0.005l-0.01,-0.005l-0.01,-0.004l-0.01,-0.005l-0.011,-0.004l-0.011,-0.004l-0.011,-0.003l-0.011,-0.004l-0.012,-0.003l-0.012,-0.003l-0.013,-0.003l-0.012,-0.002l-0.013,-0.002l-0.013,-0.002l-0.014,-0.002l-0.014,-0.002l-0.013,-0.001l-0.015,-0.001l-0.014,-0.001l-0.015,-0.001l-0.015,0l-0.015,0l-0.015,0l-0.015,0l-0.016,0l-0.015,0.001l-0.016,0.001l-0.016,0.001l-0.016,0.001l-0.032,0.002l-0.033,0.003l-0.033,0.004l-0.033,0.004l-0.032,0.004l-0.033,0.005l-0.066,0.009l-0.032,0.004l-0.033,0.005l-0.032,0.003l-0.032,0.004l-0.033,0.003l-0.031,0.002l-0.017,0.001l-0.017,0.001l-0.016,0l-0.017,0l-0.017,0l-0.018,-0.001l-0.017,-0.002l-0.019,-0.002l-0.018,-0.002l-0.019,-0.004l-0.02,-0.005l-0.02,-0.005l-0.021,-0.007l-0.022,-0.009l-0.022,-0.011l-0.022,-0.013l-0.022,-0.015l-0.022,-0.017l-0.012,-0.013l-0.015,-0.015l-0.005,-0.006l-0.014,-0.017l-0.004,-0.006l-0.012,-0.019l-0.004,-0.006l-0.01,-0.019l-0.007,-0.017l-0.01,-0.027l-0.008,-0.026l-0.005,-0.026l-0.003,-0.025l-0.001,-0.025l0,-0.024l0.001,-0.023l0.003,-0.023l0.002,-0.019l0.007,-0.038l0.005,-0.037l0.005,-0.037l0.004,-0.038l0.004,-0.039l0.004,-0.039l0.003,-0.041l0.002,-0.042l0.003,-0.042l0.001,-0.043l0.001,-0.044l0.001,-0.045l0,-0.045l0,-0.047l-0.001,-0.047l-0.001,-0.048l-0.002,-0.048l-0.002,-0.05l-0.002,-0.05l-0.004,-0.051l-0.003,-0.051l-0.004,-0.052l-0.005,-0.053l-0.005,-0.054l-0.005,-0.054l-0.006,-0.055l-0.006,-0.056l-0.007,-0.056l-0.007,-0.057l-0.008,-0.057l-0.008,-0.058l-0.008,-0.059l-0.009,-0.059l-0.009,-0.06l-0.01,-0.06l-0.01,-0.061l-0.011,-0.062l-0.011,-0.062l-0.012,-0.063l-0.012,-0.063l-0.012,-0.064l-0.013,-0.064l-0.013,-0.064l-0.013,-0.066l-0.014,-0.065l-0.015,-0.067l-0.014,-0.066l-0.015,-0.068l-0.016,-0.067l-0.016,-0.068l-0.016,-0.069l-0.017,-0.069l-0.017,-0.069l-0.017,-0.07l-0.018,-0.07l-0.018,-0.071l-0.019,-0.071l-0.019,-0.072l-0.019,-0.071l-0.019,-0.073l-0.02,-0.072l-0.021,-0.073l-0.02,-0.073l-0.021,-0.074l-0.022,-0.074l-0.021,-0.074l-0.022,-0.075l-0.023,-0.075l-0.022,-0.075l-0.023,-0.076l-0.023,-0.076l-0.024,-0.076l-0.024,-0.076l-0.024,-0.077l-0.025,-0.077l-0.025,-0.077l-0.025,-0.078l-0.025,-0.078l-0.026,-0.078l-0.026,-0.078l-0.026,-0.078l-0.027,-0.079l-0.027,-0.079l-0.027,-0.079l-0.027,-0.079l-0.028,-0.079l-0.028,-0.08l-0.028,-0.08l-0.029,-0.08l-0.028,-0.08l-0.029,-0.08l-0.03,-0.08l-0.029,-0.081l-0.03,-0.08l-0.03,-0.081l-0.03,-0.081l-0.031,-0.081l-0.031,-0.081l-0.03,-0.081l-0.032,-0.081l-0.031,-0.082l-0.032,-0.081l-0.032,-0.081l-0.032,-0.082l-0.032,-0.081l-0.032,-0.082l-0.033,-0.082l-0.033,-0.081l-0.033,-0.082l-0.033,-0.081l-0.068,-0.164l-0.068,-0.163l-0.068,-0.163l-0.07,-0.163l-0.07,-0.162l-0.07,-0.163l-0.071,-0.162l-0.072,-0.161l-0.073,-0.162l-0.073,-0.16l-0.073,-0.161l-0.037,-0.079l-0.037,-0.08l-0.038,-0.079l-0.037,-0.08l-0.037,-0.079l-0.038,-0.079l-0.037,-0.078l-0.038,-0.079l-0.038,-0.078l-0.038,-0.078l-0.038,-0.078l-0.038,-0.077l-0.038,-0.078l-0.038,-0.077l-0.039,-0.077l-0.038,-0.076l-0.039,-0.076l-0.038,-0.076l-0.039,-0.076l-0.038,-0.075l-0.039,-0.076l-0.039,-0.074l-0.039,-0.075l-0.039,-0.074l-0.039,-0.074l-0.039,-0.073l-0.039,-0.073l-0.039,-0.073l-0.039,-0.072l-0.039,-0.072l-0.039,-0.072l-0.039,-0.071l-0.04,-0.071l-0.039,-0.071l-0.039,-0.07l-0.039,-0.069l-0.039,-0.069l-0.04,-0.069l-0.039,-0.069l-0.039,-0.067l-0.039,-0.068l-0.04,-0.067l-0.039,-0.066l-0.039,-0.066l-0.039,-0.066l-0.039,-0.065l-0.04,-0.065l-0.039,-0.064l-0.039,-0.063l-0.039,-0.063l-0.039,-0.063l-0.039,-0.062l-0.039,-0.061l-0.038,-0.061l-0.039,-0.06l-0.039,-0.06l-0.039,-0.059l-0.038,-0.059l-0.039,-0.058l-0.038,-0.057l-0.039,-0.057l-0.038,-0.056l-0.038,-0.056l-0.038,-0.055l-0.038,-0.054l-0.038,-0.054l-0.038,-0.053l-0.038,-0.052l-0.037,-0.052l-0.038,-0.051l-0.037,-0.051l-0.038,-0.049l-0.037,-0.049l-0.037,-0.049l-0.037,-0.047l-0.037,-0.047l-0.036,-0.046l-0.037,-0.046l-0.036,-0.044l-0.036,-0.044l-0.036,-0.043l-0.036,-0.043l-0.036,-0.041l-0.035,-0.041l-0.036,-0.04l-0.035,-0.039l-0.035,-0.039l-0.034,-0.038l-0.035,-0.036l-0.034,-0.036l-0.034,-0.035l-0.034,-0.035l-0.034,-0.033l-0.033,-0.033l-0.033,-0.031l-0.033,-0.031l-0.033,-0.03l-0.032,-0.029l-0.033,-0.028l-0.031,-0.027l-0.032,-0.027l-0.031,-0.025l-0.031,-0.024l-0.031,-0.024l-0.03,-0.022l-0.03,-0.022l-0.029,-0.021l-0.029,-0.019l-0.029,-0.019l-0.028,-0.018l-0.028,-0.016l-0.028,-0.016l-0.013,-0.008l-0.014,-0.007l-0.013,-0.007l-0.013,-0.007l-0.013,-0.006l-0.013,-0.006l-0.013,-0.006l-0.013,-0.006l-0.012,-0.006l-0.013,-0.005l-0.012,-0.005l-0.012,-0.005l-0.012,-0.005l-0.012,-0.004l-0.012,-0.004l-0.011,-0.004l-0.012,-0.004l-0.011,-0.003l-0.011,-0.003l-0.011,-0.003l-0.011,-0.003l-0.011,-0.003l-0.01,-0.002l-0.011,-0.002l-0.056,-0.011l-0.059,-0.011l-0.061,-0.011l-0.064,-0.011l-0.065,-0.011l-0.068,-0.012l-0.07,-0.011l-0.072,-0.011l-0.073,-0.012l-0.076,-0.011l-0.077,-0.012l-0.079,-0.012l-0.164,-0.024l-0.171,-0.024l-0.176,-0.024l-0.183,-0.025l-0.188,-0.025l-0.193,-0.026l-0.401,-0.053l-0.418,-0.055l-0.431,-0.057l-0.22,-0.029l-0.223,-0.03l-0.224,-0.031l-0.227,-0.031l-0.227,-0.032l-0.229,-0.033l-0.229,-0.033l-0.115,-0.017l-0.115,-0.017l-0.115,-0.018l-0.115,-0.017l-0.115,-0.018l-0.114,-0.018l-0.115,-0.018l-0.114,-0.019l-0.114,-0.018l-0.114,-0.019l-0.114,-0.019l-0.113,-0.019l-0.112,-0.02l-0.112,-0.019l-0.112,-0.02l-0.111,-0.021l-0.111,-0.02l-0.11,-0.021l-0.109,-0.021l-0.108,-0.021l-0.108,-0.021l-0.107,-0.022l-0.106,-0.022l-0.106,-0.022l-0.104,-0.022l-0.103,-0.023l-0.103,-0.023l-0.101,-0.023l-0.1,-0.024l-0.1,-0.024l-0.098,-0.024l-0.096,-0.024l-0.096,-0.025l-0.094,-0.025l-0.093,-0.025l-0.092,-0.026l-0.09,-0.026l-0.088,-0.026l-0.044,-0.013l-0.044,-0.014l-0.043,-0.013l-0.043,-0.014l-0.042,-0.013l-0.042,-0.014l-0.042,-0.014l-0.041,-0.014l-0.04,-0.014l-0.041,-0.014l-0.04,-0.014l-0.039,-0.014l-0.039,-0.015l-0.039,-0.014l-0.038,-0.015l-0.038,-0.014l-0.037,-0.015l-0.037,-0.015l-0.037,-0.015l-0.036,-0.015l-0.035,-0.015l-0.035,-0.016l-0.035,-0.015l-0.034,-0.016l-0.034,-0.015l-0.033,-0.016l-0.033,-0.016l-0.032,-0.016l-0.032,-0.017l-0.031,-0.016l-0.031,-0.016l-0.031,-0.017l-0.029,-0.017l-0.03,-0.017l-0.029,-0.017l-0.028,-0.017l-0.028,-0.018l-0.027,-0.018l-0.027,-0.018l-0.026,-0.018l-0.026,-0.018l-0.026,-0.019l-0.024,-0.018l-0.025,-0.019l-0.023,-0.02l-0.023,-0.019l-0.023,-0.02l-0.022,-0.02l-0.021,-0.02l-0.021,-0.021l-0.021,-0.021l-0.019,-0.021l-0.019,-0.022l-0.019,-0.022l-0.018,-0.023l-0.017,-0.023l-0.016,-0.023l-0.016,-0.024l-0.015,-0.024l-0.014,-0.025l-0.013,-0.025l-0.013,-0.025l-0.011,-0.026l-0.01,-0.025l-0.006,-0.015l-0.005,-0.013l-0.004,-0.014l-0.004,-0.013l-0.004,-0.014l-0.004,-0.014l-0.004,-0.014l-0.003,-0.014l-0.003,-0.014l-0.002,-0.014l-0.003,-0.014l-0.002,-0.014l-0.001,-0.015l-0.002,-0.014l-0.001,-0.014l-0.001,-0.015l-0.001,-0.014l0,-0.015l0,-0.014l0,-0.015l0.001,-0.014l0.001,-0.015l0.001,-0.015l0.001,-0.014l0.002,-0.015l0.002,-0.014l0.002,-0.015l0.003,-0.014l0.003,-0.015l0.003,-0.014l0.003,-0.014l0.004,-0.013l0.005,-0.019l0.004,-0.018l0.005,-0.017l0.003,-0.017l0.004,-0.016l0.004,-0.016l0.003,-0.016l0.003,-0.016l0.003,-0.015l0.002,-0.015l0.002,-0.014l0.002,-0.014l0.002,-0.014l0.002,-0.013l0.001,-0.013l0.001,-0.012l0.001,-0.012l0,-0.012l0.001,-0.011l0,-0.011l0,-0.011l0,-0.01l-0.001,-0.01l0,-0.009l-0.001,-0.009l-0.001,-0.008l-0.001,-0.008l-0.001,-0.008l-0.001,-0.007l-0.001,-0.006l-0.002,-0.007l-0.001,-0.006l-0.002,-0.005l-0.001,-0.005l-0.002,-0.005l-0.001,-0.004l-0.002,-0.004l-0.002,-0.004l-0.001,-0.003l-0.002,-0.003l-0.002,-0.003l-0.001,-0.003l-0.002,-0.003l-0.002,-0.002l-0.001,-0.002l-0.002,-0.002l-0.002,-0.002l-0.002,-0.002l-0.002,-0.002l-0.002,-0.002l-0.003,-0.002l-0.002,-0.002l-0.003,-0.002l-0.003,-0.002l-0.003,-0.003l-0.004,-0.002l-0.004,-0.002l-0.004,-0.002l-0.005,-0.002l-0.005,-0.003l-0.006,-0.002l-0.006,-0.002l-0.006,-0.002l-0.007,-0.002l-0.008,-0.003l-0.008,-0.002l-0.008,-0.002l-0.009,-0.001l-0.009,-0.002l-0.01,-0.002l-0.01,-0.001l-0.011,-0.002l-0.012,-0.001l-0.011,-0.001l-0.013,-0.001l-0.013,0l-0.013,-0.001l-0.014,0l-0.014,0l-0.014,0l-0.016,0l-0.015,0.001l-0.016,0.001l-0.017,0.001l-0.017,0.001l-0.017,0.001l-0.018,0.002l-0.018,0.002l-0.019,0.002l-0.019,0.003l-0.02,0.003l-0.02,0.003l-0.021,0.003l-0.021,0.003l-0.021,0.004l-0.022,0.004l-0.022,0.005l-0.023,0.004l-0.023,0.005l-0.023,0.005l-0.049,0.011l-0.05,0.012l-0.051,0.013l-0.054,0.015l-0.054,0.015l-0.057,0.016l-0.058,0.018l-0.06,0.018l-0.062,0.02l-0.063,0.021l-0.065,0.022l-0.066,0.023l-0.068,0.024l-0.07,0.025l-0.072,0.027l-0.073,0.027l-0.075,0.029l-0.076,0.03l-0.078,0.03l-0.08,0.032l-0.082,0.033l-0.083,0.035l-0.085,0.035l-0.087,0.036l-0.088,0.038l-0.09,0.039l-0.092,0.04l-0.094,0.041l-0.095,0.042l-0.097,0.043l-0.099,0.044l-0.101,0.046l-0.103,0.047l-0.104,0.047l-0.106,0.049l-0.108,0.05l-0.109,0.052l-0.112,0.052l-0.113,0.054l-0.115,0.054l-0.117,0.056l-0.119,0.057l-0.121,0.058l-0.123,0.059l-0.124,0.061l-0.126,0.061l-0.129,0.063l-0.13,0.064l-0.132,0.065l-0.134,0.067l-0.136,0.067l-0.138,0.069l-0.282,0.14l-0.289,0.146l-0.298,0.15l-0.305,0.155l-0.314,0.159l-0.321,0.165l-0.33,0.169l-0.338,0.174l-0.347,0.179l-0.355,0.183l-0.364,0.188l-0.372,0.194l-0.38,0.198l-0.048,0.024l-0.047,0.025l-0.046,0.025l-0.047,0.025l-0.046,0.025l-0.046,0.026l-0.046,0.025l-0.046,0.026l-0.045,0.026l-0.045,0.026l-0.045,0.026l-0.045,0.026l-0.045,0.027l-0.044,0.026l-0.044,0.027l-0.044,0.027l-0.044,0.027l-0.044,0.027l-0.043,0.027l-0.043,0.027l-0.043,0.028l-0.043,0.027l-0.043,0.028l-0.042,0.028l-0.042,0.028l-0.042,0.028l-0.042,0.028l-0.041,0.028l-0.042,0.029l-0.041,0.029l-0.041,0.028l-0.04,0.029l-0.041,0.029l-0.04,0.029l-0.041,0.03l-0.039,0.029l-0.04,0.029l-0.04,0.03l-0.039,0.03l-0.039,0.03l-0.039,0.03l-0.039,0.03l-0.039,0.03l-0.038,0.03l-0.038,0.031l-0.038,0.03l-0.038,0.031l-0.038,0.03l-0.037,0.031l-0.038,0.031l-0.037,0.031l-0.037,0.032l-0.036,0.031l-0.037,0.031l-0.036,0.032l-0.036,0.032l-0.036,0.031l-0.036,0.032l-0.036,0.032l-0.035,0.032l-0.035,0.032l-0.035,0.033l-0.035,0.032l-0.035,0.032l-0.034,0.033l-0.035,0.033l-0.034,0.032l-0.034,0.033l-0.034,0.033l-0.033,0.033l-0.034,0.033l-0.033,0.034l-0.033,0.033l-0.033,0.033l-0.032,0.034l-0.033,0.034l-0.032,0.033l-0.033,0.034l-0.032,0.034l-0.031,0.034l-0.032,0.034l-0.032,0.034l-0.031,0.034l-0.031,0.035l-0.031,0.034l-0.031,0.035l-0.03,0.034l-0.031,0.035l-0.03,0.035l-0.03,0.034l-0.03,0.035l-0.03,0.035l-0.03,0.035l-0.029,0.035l-0.029,0.036l-0.029,0.035l-0.058,0.071l-0.057,0.071l-0.057,0.071l-0.056,0.072l-0.055,0.072l-0.054,0.072l-0.054,0.073l-0.053,0.072l-0.053,0.074l-0.052,0.073l-0.051,0.073l-0.051,0.074l-0.05,0.074l-0.049,0.074l-0.049,0.075l-0.048,0.074l-0.048,0.075l-0.047,0.075l-0.047,0.076l-0.045,0.075l-0.046,0.076l-0.044,0.076l-0.044,0.076l-0.044,0.076l-0.043,0.076l-0.042,0.077l-0.042,0.076l-0.041,0.077l-0.041,0.077l-0.04,0.077l-0.04,0.077l-0.039,0.077l-0.038,0.078l-0.038,0.077l-0.038,0.078l-0.037,0.077l-0.036,0.078l-0.036,0.078l-0.035,0.078l-0.035,0.078l-0.034,0.078l-0.034,0.078l-0.033,0.078l-0.033,0.078l-0.032,0.079l-0.032,0.078l-0.032,0.078l-0.03,0.079l-0.031,0.078l-0.029,0.078l-0.03,0.078l-0.029,0.079l-0.028,0.078l-0.028,0.078l-0.027,0.079l-0.027,0.078l-0.027,0.078l-0.026,0.078l-0.026,0.078l-0.025,0.078l-0.025,0.078l-0.024,0.078l-0.024,0.078l-0.023,0.078l-0.023,0.077l-0.023,0.078l-0.022,0.077l-0.022,0.077l-0.021,0.078l-0.021,0.077l-0.021,0.077l-0.02,0.077l-0.02,0.076l-0.019,0.077l-0.019,0.076l-0.019,0.076l-0.018,0.076l-0.018,0.076l-0.017,0.076l-0.017,0.076l-0.017,0.075l-0.016,0.075l-0.016,0.075l-0.016,0.075l-0.015,0.074l-0.015,0.075l-0.015,0.074l-0.014,0.073l-0.014,0.074l-0.014,0.073l-0.013,0.073l-0.013,0.073l-0.012,0.073l-0.013,0.072l-0.012,0.072l-0.011,0.072l-0.012,0.071l-0.011,0.071l-0.011,0.071l-0.01,0.071l-0.01,0.07l-0.01,0.07l-0.01,0.069l-0.009,0.07l-0.009,0.068l-0.009,0.069l-0.008,0.068l-0.008,0.068l-0.008,0.067l-0.008,0.067l-0.007,0.067l-0.008,0.066l-0.007,0.066l-0.006,0.066l-0.007,0.065l-0.006,0.064l-0.006,0.065l-0.006,0.064l-0.005,0.063l-0.006,0.063l-0.01,0.124l-0.009,0.123l-0.008,0.121l-0.008,0.119l-0.007,0.117l-0.006,0.115l-0.005,0.113l-0.005,0.11l-0.004,0.109l-0.004,0.106l-0.003,0.104l-0.002,0.102l-0.002,0.099l-0.002,0.097l-0.001,0.095l0,0.091l0,0.09l0,0.086l0,0.084l0.001,0.081l0.001,0.079l0.001,0.075l0.001,0.073l0.002,0.07l0.002,0.067l0.001,0.063l0.004,0.119l0.004,0.106l0.004,0.093l0.006,0.146l0.002,0.053l0,0.023l0.001,0.022l-0.001,0.021l-0.001,0.015l-0.002,0.021l-0.001,0.003l-0.007,0.032l-0.001,0.002l-0.041,0.079l-0.001,0.001l-0.158,0.089l0,0l-0.135,-0.022l0,0l-0.04,-0.024l-0.016,-0.012l-0.014,-0.01l-0.013,-0.009l-0.014,-0.009l-0.014,-0.008l-0.013,-0.008l-0.014,-0.007l-0.014,-0.007l-0.013,-0.007l-0.014,-0.006l-0.013,-0.005l-0.014,-0.005l-0.013,-0.005l-0.014,-0.005l-0.013,-0.004l-0.014,-0.003l-0.013,-0.004l-0.014,-0.003l-0.014,-0.002l-0.014,-0.003l-0.013,-0.002l-0.014,-0.001l-0.014,-0.002l-0.014,-0.001l-0.015,-0.001l-0.014,0l-0.014,0l-0.015,0l-0.014,0.001l-0.015,0l-0.014,0.001l-0.015,0.002l-0.015,0.002l-0.015,0.002l-0.015,0.002l-0.015,0.002l-0.015,0.003l-0.015,0.003l-0.016,0.004l-0.015,0.004l-0.015,0.004l-0.016,0.004l-0.015,0.004l-0.016,0.005l-0.015,0.005l-0.016,0.005l-0.015,0.006l-0.016,0.006l-0.015,0.006l-0.016,0.006l-0.016,0.006l-0.015,0.007l-0.016,0.007l-0.015,0.007l-0.016,0.007l-0.015,0.007l-0.015,0.008l-0.016,0.008l-0.015,0.008l-0.015,0.008l-0.015,0.008l-0.015,0.008l-0.03,0.018l-0.03,0.018l-0.029,0.018l-0.028,0.018l-0.029,0.019l-0.027,0.019l-0.027,0.019l-0.027,0.019l-0.025,0.02l-0.026,0.019l-0.024,0.019l-0.024,0.019l-0.022,0.019l-0.022,0.018l-0.021,0.018l-0.021,0.018l-0.019,0.017l-0.018,0.017l-0.018,0.015l-0.016,0.016l-0.015,0.014l-0.023,0.023l0.001,0.029l0.003,0.098l0.004,0.122l0.005,0.144l0.007,0.166l0.008,0.185l0.004,0.099l0.005,0.103l0.006,0.108l0.005,0.111l0.006,0.115l0.007,0.118l0.007,0.121l0.007,0.125l0.008,0.127l0.009,0.13l0.009,0.132l0.009,0.134l0.01,0.137l0.01,0.138l0.011,0.139l0.012,0.141l0.012,0.142l0.013,0.143l0.013,0.144l0.014,0.144l0.014,0.144l0.015,0.144l0.016,0.145l0.016,0.144l0.009,0.072l0.008,0.071l0.009,0.072l0.009,0.071l0.009,0.071l0.009,0.071l0.01,0.07l0.009,0.07l0.01,0.07l0.01,0.069l0.01,0.069l0.01,0.069l0.011,0.068l0.011,0.067l0.01,0.067l0.011,0.067l0.012,0.066l0.011,0.065l0.011,0.065l0.012,0.064l0.012,0.064l0.012,0.062l0.012,0.062l0.013,0.061l0.013,0.061l0.012,0.06l0.013,0.058l0.014,0.058l0.013,0.057l0.014,0.056l0.013,0.055l0.014,0.054l0.014,0.053l0.015,0.052l0.014,0.051l0.015,0.05l0.015,0.049l0.015,0.047l0.015,0.046l0.015,0.045l0.015,0.044l0.016,0.042l0.015,0.041l0.016,0.04l0.016,0.039l0.008,0.018l0.008,0.018l0.008,0.017l0.008,0.018l0.008,0.017l0.008,0.016l0.017,0.034l0.017,0.033l0.016,0.031l0.017,0.03l0.017,0.03l0.016,0.028l0.017,0.027l0.017,0.027l0.016,0.025l0.017,0.024l0.016,0.023l0.016,0.022l0.017,0.022l0.016,0.02l0.016,0.02l0.016,0.018l0.015,0.018l0.016,0.017l0.016,0.016l0.015,0.015l0.015,0.014l0.015,0.014l0.015,0.013l0.015,0.012l0.014,0.011l0.014,0.011l0.015,0.009l0.013,0.01l0.014,0.008l0.014,0.008l0.013,0.008l0.013,0.007l0.013,0.006l0.013,0.006l0.013,0.005l0.013,0.005l0.012,0.005l0.013,0.004l0.012,0.003l0.012,0.004l0.012,0.002l0.012,0.003l0.012,0.002l0.012,0.002l0.012,0.001l0.011,0.001l0.012,0.001l0.012,0l0.012,0l0.011,0l0.012,0l0.012,-0.001l0.012,-0.001l0.012,-0.001l0.012,-0.002l0.012,-0.002l0.012,-0.002l0.012,-0.003l0.012,-0.003l0.012,-0.003l0.012,-0.003l0.012,-0.004l0.012,-0.003l0.012,-0.004l0.012,-0.005l0.012,-0.004l0.012,-0.005l0.012,-0.005l0.012,-0.006l0.012,-0.005l0.012,-0.006l0.012,-0.006l0.012,-0.006l0.011,-0.006l0.012,-0.007l0.012,-0.006l0.011,-0.007l0.012,-0.007l0.011,-0.007l0.011,-0.007l0.011,-0.008l0.011,-0.007l0.022,-0.015l0.021,-0.016l0.02,-0.015l0.02,-0.016l0.019,-0.016l0.018,-0.015l0.018,-0.016l0.017,-0.015l0.015,-0.015l0.015,-0.014l0.014,-0.014l0.013,-0.013l0.012,-0.012l0.011,-0.012l0.009,-0.01l0.017,-0.018l0.011,-0.013l0.006,-0.008l0.002,-0.002l0.335,-0.038l3.087,2.433l0.041,0.041l0.03,0.049l0.017,0.056l0.003,0.057l-0.011,0.057l-0.024,0.053l-0.035,0.045l-0.046,0.036l-0.053,0.023l-0.057,0.011l-0.058,-0.004l-0.055,-0.017l-0.049,-0.03l-2.915,-2.298l-0.01,0.01l-0.022,0.02l-0.023,0.02l-0.024,0.021l-0.026,0.021l-0.027,0.021l-0.028,0.022l-0.029,0.021l-0.029,0.021l-0.016,0.011l-0.016,0.01l-0.016,0.01l-0.017,0.011l-0.016,0.01l-0.017,0.01l-0.017,0.01l-0.018,0.009l-0.018,0.01l-0.018,0.009l-0.018,0.009l-0.019,0.009l-0.019,0.009l-0.019,0.008l-0.019,0.009l-0.02,0.008l-0.02,0.007l-0.02,0.008l-0.021,0.007l-0.021,0.006l-0.021,0.007l-0.022,0.005l-0.021,0.006l-0.022,0.005l-0.023,0.005l-0.022,0.004l-0.023,0.004l-0.023,0.003l-0.023,0.002l-0.024,0.003l-0.023,0.001l-0.024,0.001l-0.024,0l-0.025,0l-0.024,-0.001l-0.025,-0.001l-0.025,-0.003l-0.024,-0.002l-0.025,-0.004l-0.026,-0.005l-0.025,-0.005l-0.025,-0.006l-0.025,-0.006l-0.025,-0.008l-0.026,-0.008l-0.025,-0.009l-0.025,-0.01l-0.025,-0.01l-0.025,-0.012l-0.025,-0.012l-0.025,-0.013l-0.024,-0.013l-0.025,-0.015l-0.024,-0.015l-0.025,-0.016l-0.024,-0.017l-0.024,-0.018l-0.023,-0.019l-0.024,-0.019l-0.023,-0.02l-0.024,-0.021l-0.023,-0.022l-0.022,-0.022l-0.023,-0.024l-0.023,-0.024l-0.022,-0.025l-0.022,-0.026l-0.022,-0.027l-0.022,-0.027l-0.021,-0.028l-0.022,-0.03l-0.021,-0.03l-0.021,-0.031l-0.021,-0.032l-0.021,-0.032l-0.02,-0.034l-0.02,-0.034l-0.021,-0.036l-0.02,-0.036l-0.02,-0.038l-0.019,-0.038l-0.02,-0.039l-0.01,-0.021l-0.01,-0.021l-0.01,-0.021l-0.009,-0.022l-0.01,-0.022l-0.01,-0.022l-0.018,-0.045l-0.019,-0.046l-0.018,-0.047l-0.017,-0.048l-0.018,-0.05l-0.017,-0.05l-0.017,-0.051l-0.016,-0.052l-0.016,-0.053l-0.016,-0.054l-0.016,-0.055l-0.015,-0.056l-0.015,-0.057l-0.015,-0.058l-0.015,-0.058l-0.014,-0.059l-0.014,-0.061l-0.014,-0.06l-0.014,-0.062l-0.013,-0.062l-0.013,-0.063l-0.013,-0.064l-0.013,-0.065l-0.012,-0.065l-0.013,-0.065l-0.012,-0.067l-0.012,-0.066l-0.012,-0.068l-0.011,-0.068l-0.011,-0.068l-0.011,-0.069l-0.011,-0.069l-0.011,-0.07l-0.011,-0.07l-0.01,-0.071l-0.01,-0.071l-0.01,-0.071l-0.01,-0.072l-0.01,-0.071l-0.009,-0.073l-0.009,-0.072l-0.009,-0.072l-0.009,-0.073l-0.009,-0.073l-0.008,-0.073l-0.017,-0.146l-0.016,-0.147l-0.015,-0.146l-0.015,-0.147l-0.014,-0.145l-0.013,-0.146l-0.013,-0.144l-0.012,-0.144l-0.012,-0.142l-0.011,-0.141l-0.011,-0.14l-0.01,-0.137l-0.009,-0.136l-0.009,-0.133l-0.009,-0.131l-0.008,-0.129l-0.007,-0.125l-0.007,-0.123l-0.007,-0.119l-0.006,-0.116l-0.006,-0.112l-0.005,-0.108l-0.005,-0.105l-0.005,-0.1l-0.008,-0.186l-0.007,-0.167l-0.005,-0.146l-0.004,-0.124l-0.003,-0.098l-0.002,-0.073l-0.002,-0.06l0.064,-0.17l0.013,-0.013l0.016,-0.018l0.022,-0.022l0.027,-0.027l0.032,-0.031l0.018,-0.017l0.019,-0.018l0.02,-0.018l0.022,-0.019l0.022,-0.02l0.024,-0.021l0.024,-0.021l0.026,-0.022l0.027,-0.021l0.027,-0.023l0.029,-0.022l0.03,-0.023l0.03,-0.023l0.032,-0.023l0.032,-0.023l0.033,-0.022l0.034,-0.023l0.035,-0.023l0.036,-0.022l0.036,-0.022l0.037,-0.021l0.02,-0.011l0.019,-0.01l0.019,-0.011l0.02,-0.01l0.019,-0.01l0.02,-0.01l0.02,-0.009l0.02,-0.01l0.021,-0.009l0.02,-0.009l0.021,-0.009l0.021,-0.009l0.021,-0.008l0.022,-0.009l0.021,-0.007l0.022,-0.008l0.022,-0.008l0.022,-0.007l0.022,-0.007l0.022,-0.006l0.023,-0.006l0.023,-0.006l0.022,-0.006l0.023,-0.005l0.024,-0.005l0.023,-0.004l0.023,-0.004l0.024,-0.004l0.024,-0.003l0.024,-0.003l0.024,-0.002l0.024,-0.002l0.024,-0.001l0.025,-0.001l0.024,0l0.025,0l0.025,0.001l0.025,0.001l0.025,0.002l0.025,0.002l0.025,0.003l0.025,0.004l0.025,0.004l0.025,0.005l0.025,0.006l0.019,0.004l-0.002,-0.066l-0.004,-0.121l-0.002,-0.065l-0.002,-0.069l-0.002,-0.071l-0.001,-0.074l-0.001,-0.077l-0.001,-0.081l-0.001,-0.082l0,-0.086l0,-0.089l0,-0.091l0,-0.094l0.002,-0.096l0.001,-0.099l0.002,-0.102l0.003,-0.103l0.003,-0.107l0.003,-0.108l0.004,-0.111l0.005,-0.113l0.006,-0.115l0.006,-0.118l0.007,-0.119l0.008,-0.122l0.008,-0.123l0.01,-0.126l0.01,-0.127l0.005,-0.064l0.006,-0.065l0.006,-0.065l0.006,-0.066l0.006,-0.066l0.007,-0.066l0.007,-0.067l0.007,-0.068l0.007,-0.067l0.008,-0.069l0.008,-0.068l0.008,-0.069l0.008,-0.069l0.009,-0.07l0.009,-0.07l0.009,-0.071l0.01,-0.07l0.01,-0.072l0.01,-0.071l0.01,-0.072l0.011,-0.072l0.011,-0.072l0.011,-0.073l0.012,-0.073l0.012,-0.074l0.012,-0.073l0.012,-0.074l0.013,-0.075l0.014,-0.074l0.013,-0.075l0.014,-0.075l0.014,-0.076l0.015,-0.075l0.015,-0.076l0.015,-0.076l0.016,-0.077l0.016,-0.076l0.016,-0.077l0.017,-0.077l0.017,-0.077l0.018,-0.078l0.018,-0.077l0.018,-0.078l0.019,-0.078l0.019,-0.079l0.019,-0.078l0.02,-0.079l0.02,-0.078l0.021,-0.079l0.021,-0.079l0.022,-0.079l0.022,-0.08l0.022,-0.079l0.023,-0.08l0.023,-0.079l0.024,-0.08l0.024,-0.08l0.024,-0.08l0.025,-0.08l0.026,-0.08l0.026,-0.081l0.026,-0.08l0.027,-0.08l0.027,-0.081l0.028,-0.08l0.029,-0.081l0.028,-0.08l0.03,-0.081l0.029,-0.081l0.031,-0.08l0.03,-0.081l0.032,-0.081l0.031,-0.081l0.033,-0.08l0.032,-0.081l0.034,-0.081l0.033,-0.08l0.035,-0.081l0.035,-0.081l0.035,-0.08l0.036,-0.081l0.036,-0.08l0.037,-0.081l0.038,-0.08l0.038,-0.08l0.039,-0.081l0.039,-0.08l0.04,-0.08l0.04,-0.08l0.041,-0.08l0.042,-0.079l0.042,-0.08l0.043,-0.079l0.043,-0.08l0.044,-0.079l0.044,-0.079l0.046,-0.079l0.045,-0.079l0.047,-0.078l0.047,-0.079l0.047,-0.078l0.048,-0.078l0.049,-0.078l0.05,-0.078l0.05,-0.077l0.05,-0.077l0.052,-0.077l0.052,-0.077l0.052,-0.077l0.054,-0.076l0.054,-0.076l0.054,-0.076l0.056,-0.076l0.056,-0.075l0.056,-0.076l0.058,-0.074l0.058,-0.075l0.058,-0.074l0.06,-0.074l0.06,-0.074l0.03,-0.037l0.03,-0.036l0.031,-0.037l0.031,-0.036l0.031,-0.037l0.031,-0.036l0.031,-0.036l0.032,-0.036l0.032,-0.036l0.032,-0.036l0.032,-0.036l0.032,-0.036l0.032,-0.036l0.033,-0.036l0.033,-0.035l0.033,-0.036l0.033,-0.035l0.033,-0.035l0.034,-0.035l0.033,-0.036l0.034,-0.035l0.034,-0.035l0.035,-0.034l0.034,-0.035l0.035,-0.035l0.035,-0.034l0.035,-0.035l0.035,-0.034l0.035,-0.034l0.036,-0.034l0.035,-0.034l0.036,-0.034l0.037,-0.034l0.036,-0.034l0.036,-0.033l0.037,-0.034l0.037,-0.033l0.037,-0.034l0.037,-0.033l0.038,-0.033l0.037,-0.033l0.038,-0.033l0.038,-0.033l0.039,-0.032l0.038,-0.033l0.039,-0.032l0.039,-0.032l0.039,-0.033l0.039,-0.032l0.039,-0.032l0.04,-0.031l0.04,-0.032l0.04,-0.032l0.04,-0.031l0.04,-0.031l0.041,-0.032l0.041,-0.031l0.041,-0.031l0.041,-0.031l0.041,-0.03l0.042,-0.031l0.042,-0.03l0.042,-0.031l0.042,-0.03l0.043,-0.03l0.042,-0.03l0.043,-0.03l0.043,-0.029l0.043,-0.03l0.044,-0.029l0.044,-0.03l0.043,-0.029l0.044,-0.029l0.045,-0.029l0.044,-0.028l0.045,-0.029l0.045,-0.028l0.045,-0.029l0.045,-0.028l0.046,-0.028l0.046,-0.028l0.046,-0.027l0.046,-0.028l0.046,-0.027l0.047,-0.028l0.047,-0.027l0.047,-0.027l0.047,-0.027l0.047,-0.026l0.048,-0.027l0.048,-0.026l0.048,-0.027l0.048,-0.026l0.049,-0.026l0.049,-0.025l0.049,-0.026l0.381,-0.198l0.372,-0.194l0.364,-0.188l0.356,-0.184l0.347,-0.179l0.339,-0.174l0.33,-0.17l0.322,-0.164l0.315,-0.16l0.306,-0.155l0.298,-0.151l0.29,-0.146l0.283,-0.141l0.138,-0.069l0.137,-0.068l0.134,-0.066l0.133,-0.066l0.131,-0.064l0.129,-0.063l0.127,-0.062l0.125,-0.061l0.123,-0.059l0.122,-0.059l0.119,-0.057l0.118,-0.056l0.116,-0.055l0.115,-0.054l0.112,-0.053l0.111,-0.052l0.108,-0.05l0.108,-0.05l0.105,-0.048l0.104,-0.047l0.102,-0.046l0.1,-0.045l0.098,-0.044l0.097,-0.043l0.095,-0.041l0.093,-0.041l0.092,-0.039l0.09,-0.039l0.089,-0.037l0.087,-0.036l0.085,-0.035l0.083,-0.034l0.082,-0.033l0.081,-0.031l0.079,-0.031l0.077,-0.03l0.076,-0.028l0.074,-0.027l0.073,-0.027l0.071,-0.025l0.07,-0.024l0.068,-0.023l0.067,-0.022l0.065,-0.021l0.064,-0.02l0.063,-0.019l0.061,-0.018l0.06,-0.017l0.058,-0.015l0.058,-0.015l0.056,-0.013l0.054,-0.013l0.027,-0.006l0.027,-0.005l0.026,-0.005l0.026,-0.005l0.025,-0.005l0.026,-0.005l0.025,-0.004l0.025,-0.004l0.024,-0.003l0.024,-0.004l0.024,-0.003l0.024,-0.003l0.024,-0.002l0.023,-0.003l0.023,-0.002l0.022,-0.001l0.023,-0.002l0.022,-0.001l0.022,-0.001l0.022,0l0.021,0l0.022,0l0.021,0l0.021,0.001l0.02,0.001l0.021,0.002l0.02,0.001l0.021,0.002l0.02,0.003l0.019,0.003l0.02,0.003l0.02,0.004l0.019,0.004l0.019,0.004l0.019,0.005l0.019,0.006l0.019,0.005l0.018,0.007l0.018,0.007l0.019,0.007l0.017,0.008l0.018,0.008l0.018,0.009l0.017,0.009l0.017,0.01l0.016,0.011l0.016,0.011l0.016,0.011l0.016,0.013l0.015,0.012l0.014,0.014l0.014,0.013l0.014,0.014l0.013,0.015l0.013,0.015l0.012,0.016l0.011,0.016l0.011,0.016l0.01,0.016l0.01,0.017l0.009,0.018l0.009,0.017l0.008,0.018l0.007,0.017l0.007,0.018l0.006,0.018l0.006,0.019l0.005,0.018l0.004,0.018l0.005,0.019l0.003,0.019l0.003,0.018l0.003,0.019l0.003,0.019l0.001,0.019l0.002,0.019l0.001,0.019l0.001,0.019l0,0.019l0,0.02l0,0.019l-0.001,0.019l-0.001,0.02l-0.001,0.02l-0.002,0.019l-0.002,0.02l-0.002,0.02l-0.003,0.02l-0.003,0.021l-0.003,0.02l-0.004,0.021l-0.003,0.02l-0.004,0.021l-0.004,0.021l-0.005,0.021l-0.005,0.021l-0.005,0.021l-0.005,0.022l-0.006,0.022l-0.005,0.02l-0.002,0.007l-0.001,0.006l-0.001,0.005l-0.002,0.006l0,0.005l-0.001,0.005l-0.001,0.005l-0.001,0.005l0,0.005l0,0.005l-0.001,0.005l0,0.005l0,0.005l0,0.004l0,0.005l0,0.005l0.001,0.004l0,0.005l0,0.005l0.001,0.004l0.001,0.005l0,0.005l0.001,0.004l0.001,0.005l0.001,0.005l0.002,0.005l0.001,0.005l0.001,0.004l0.002,0.005l0.001,0.005l0.002,0.005l0.002,0.004l0.004,0.012l0.005,0.01l0.005,0.011l0.006,0.011l0.007,0.011l0.007,0.012l0.008,0.012l0.008,0.012l0.009,0.012l0.01,0.012l0.011,0.013l0.011,0.013l0.012,0.013l0.013,0.013l0.013,0.013l0.014,0.014l0.015,0.013l0.016,0.014l0.016,0.014l0.017,0.014l0.018,0.014l0.018,0.014l0.019,0.014l0.02,0.014l0.021,0.014l0.021,0.014l0.022,0.014l0.023,0.015l0.023,0.014l0.024,0.014l0.025,0.014l0.025,0.014l0.026,0.015l0.026,0.014l0.027,0.014l0.028,0.014l0.028,0.014l0.029,0.014l0.03,0.014l0.03,0.014l0.03,0.014l0.032,0.014l0.031,0.014l0.033,0.014l0.033,0.014l0.033,0.013l0.034,0.014l0.034,0.014l0.035,0.013l0.036,0.014l0.036,0.013l0.036,0.014l0.037,0.013l0.038,0.013l0.038,0.014l0.038,0.013l0.039,0.013l0.039,0.013l0.04,0.013l0.04,0.013l0.041,0.013l0.041,0.013l0.042,0.013l0.041,0.012l0.086,0.026l0.086,0.025l0.089,0.024l0.09,0.025l0.091,0.024l0.092,0.024l0.095,0.024l0.095,0.023l0.097,0.023l0.097,0.023l0.099,0.023l0.101,0.023l0.101,0.022l0.102,0.022l0.104,0.022l0.104,0.021l0.105,0.021l0.106,0.021l0.107,0.021l0.108,0.021l0.108,0.02l0.109,0.02l0.11,0.02l0.11,0.02l0.111,0.019l0.112,0.02l0.111,0.019l0.113,0.019l0.112,0.018l0.113,0.019l0.114,0.018l0.113,0.018l0.114,0.018l0.114,0.017l0.114,0.018l0.114,0.017l0.114,0.017l0.114,0.017l0.229,0.033l0.227,0.033l0.227,0.031l0.225,0.032l0.224,0.03l0.222,0.03l0.219,0.029l0.431,0.057l0.417,0.055l0.402,0.053l0.194,0.026l0.188,0.025l0.184,0.025l0.178,0.025l0.172,0.024l0.165,0.024l0.081,0.012l0.078,0.012l0.077,0.012l0.075,0.011l0.073,0.012l0.072,0.012l0.069,0.011l0.068,0.012l0.066,0.011l0.063,0.012l0.062,0.011l0.06,0.012l0.018,0.004l0.018,0.004l0.018,0.004l0.018,0.005l0.018,0.004l0.018,0.006l0.019,0.005l0.018,0.006l0.018,0.006l0.018,0.006l0.018,0.007l0.018,0.007l0.017,0.007l0.018,0.007l0.018,0.008l0.018,0.008l0.018,0.008l0.018,0.009l0.018,0.008l0.018,0.009l0.018,0.009l0.017,0.01l0.018,0.009l0.019,0.011l0.035,0.02l0.035,0.021l0.036,0.022l0.036,0.024l0.036,0.024l0.035,0.025l0.036,0.026l0.036,0.026l0.036,0.028l0.036,0.028l0.036,0.03l0.036,0.03l0.037,0.031l0.036,0.032l0.036,0.032l0.037,0.034l0.036,0.034l0.037,0.035l0.037,0.036l0.037,0.036l0.037,0.038l0.037,0.038l0.037,0.039l0.037,0.039l0.037,0.041l0.038,0.041l0.037,0.042l0.038,0.043l0.038,0.043l0.037,0.044l0.038,0.045l0.038,0.045l0.038,0.047l0.039,0.047l0.038,0.047l0.038,0.049l0.039,0.049l0.038,0.049l0.039,0.051l0.038,0.051l0.039,0.051l0.039,0.053l0.039,0.052l0.039,0.054l0.039,0.054l0.039,0.055l0.039,0.056l0.04,0.056l0.039,0.056l0.039,0.058l0.04,0.057l0.039,0.059l0.04,0.059l0.039,0.059l0.04,0.06l0.039,0.061l0.04,0.061l0.04,0.062l0.04,0.062l0.039,0.063l0.04,0.064l0.04,0.063l0.04,0.065l0.04,0.065l0.04,0.065l0.039,0.066l0.04,0.066l0.04,0.067l0.04,0.067l0.04,0.068l0.04,0.068l0.04,0.069l0.04,0.069l0.04,0.069l0.04,0.07l0.04,0.071l0.039,0.07l0.04,0.071l0.04,0.072l0.04,0.072l0.04,0.072l0.039,0.073l0.04,0.073l0.04,0.073l0.039,0.074l0.04,0.074l0.04,0.075l0.039,0.075l0.039,0.075l0.04,0.075l0.039,0.076l0.039,0.076l0.04,0.076l0.039,0.077l0.039,0.077l0.039,0.077l0.039,0.078l0.038,0.077l0.039,0.078l0.039,0.079l0.038,0.078l0.039,0.079l0.038,0.079l0.038,0.079l0.038,0.079l0.039,0.08l0.037,0.08l0.038,0.08l0.038,0.08l0.038,0.08l0.037,0.081l0.038,0.08l0.074,0.162l0.074,0.163l0.073,0.163l0.073,0.163l0.072,0.164l0.071,0.164l0.071,0.164l0.07,0.165l0.069,0.165l0.069,0.165l0.068,0.165l0.034,0.082l0.033,0.083l0.033,0.082l0.033,0.083l0.033,0.082l0.033,0.083l0.032,0.082l0.032,0.083l0.032,0.082l0.032,0.082l0.032,0.082l0.031,0.082l0.031,0.082l0.031,0.082l0.031,0.082l0.03,0.082l0.03,0.081l0.03,0.082l0.03,0.081l0.029,0.081l0.029,0.082l0.029,0.081l0.029,0.08l0.028,0.081l0.028,0.08l0.028,0.081l0.027,0.08l0.028,0.08l0.027,0.08l0.026,0.079l0.027,0.079l0.026,0.08l0.026,0.078l0.025,0.079l0.025,0.079l0.025,0.078l0.025,0.078l0.024,0.077l0.024,0.078l0.024,0.077l0.023,0.077l0.023,0.076l0.023,0.077l0.022,0.076l0.022,0.075l0.022,0.076l0.022,0.075l0.021,0.075l0.02,0.074l0.021,0.074l0.02,0.074l0.019,0.073l0.02,0.073l0.018,0.073l0.019,0.072l0.018,0.072l0.018,0.071l0.018,0.072l0.017,0.07l0.016,0.071l0.017,0.07l0.016,0.069l0.015,0.069l0.015,0.069l0.015,0.068l0.014,0.068l0.014,0.067l0.014,0.067l0.013,0.066l0.013,0.066l0.012,0.066l0.012,0.065l0.012,0.064l0.011,0.064l0.01,0.064l0.011,0.063l0.009,0.062l0.01,0.062l0.009,0.061l0.008,0.061l0.008,0.061l0.008,0.06l0.007,0.059l0.006,0.059l0.007,0.058l0.005,0.057l0.006,0.057l0.004,0.057l0.005,0.056l0.003,0.055l0.004,0.055l0.003,0.054l0.002,0.054l0.002,0.053l0.001,0.052l0.001,0.052l0,0.051l0,0.051l-0.001,0.05l-0.001,0.049l-0.002,0.049l-0.002,0.048l-0.003,0.048l-0.004,0.046l-0.004,0.047l-0.004,0.045l-0.005,0.039l0.023,-0.003l0.029,-0.003l0.031,-0.005l0.067,-0.009l0.035,-0.005l0.036,-0.004l0.037,-0.005l0.039,-0.004l0.039,-0.004l0.04,-0.003l0.021,-0.002l0.021,-0.001l0.021,-0.001l0.021,0l0.021,-0.001l0.021,0l0.022,0l0.022,0l0.022,0.001l0.022,0.001l0.022,0.001l0.023,0.002l0.022,0.002l0.023,0.002l0.022,0.003l0.023,0.004l0.023,0.004l0.023,0.004l0.023,0.006l0.024,0.005l0.023,0.007l0.023,0.006l0.023,0.008l0.023,0.008l0.024,0.009l0.023,0.01l0.023,0.01l0.022,0.012l0.023,0.012l0.023,0.013l0.022,0.013l0.022,0.015l0.022,0.015l0.021,0.016l0.021,0.017l0.021,0.018l0.02,0.019l0.019,0.02l0.019,0.02l0.019,0.021l0.018,0.022l0.018,0.023l0.016,0.024l0.017,0.024l0.015,0.025l0.015,0.026l0.015,0.027l0.013,0.027l0.013,0.028l0.013,0.029l0.012,0.029l0.011,0.03l0.01,0.031l0.01,0.032l0.009,0.032l0.009,0.033l0.008,0.034l0.007,0.034l0.007,0.036l0.006,0.036l0.005,0.037l0.005,0.037l0.004,0.039l0.004,0.039l0.003,0.04l0.002,0.041l0.002,0.042l0.001,0.042l0.001,0.048l0.001,0.047l0,0.048l0,0.049l0,0.049l0,0.049l-0.001,0.1l-0.002,0.101l-0.002,0.103l-0.003,0.104l-0.004,0.106l-0.004,0.107l-0.005,0.108l-0.005,0.11l-0.006,0.111l-0.007,0.111l-0.007,0.113l-0.007,0.114l-0.008,0.114l-0.009,0.115l-0.009,0.116l-0.009,0.117l-0.01,0.117l-0.01,0.117l-0.01,0.118l-0.011,0.118l-0.011,0.119l-0.011,0.118l-0.011,0.119l-0.012,0.118l-0.012,0.119l-0.012,0.118l-0.012,0.118l-0.025,0.236l-0.025,0.233l-0.026,0.231l-0.026,0.228l-0.025,0.224l-0.05,0.435l-0.047,0.413l-0.023,0.196l-0.021,0.189l-0.02,0.181l-0.018,0.172l-0.009,0.083l-0.008,0.08l-0.007,0.078l-0.008,0.075l-0.006,0.072l-0.006,0.069l-0.006,0.067l-0.005,0.065l-0.002,0.026l-0.003,0.026l-0.003,0.027l-0.004,0.027l-0.004,0.026l-0.005,0.026l-0.005,0.026l-0.005,0.026l-0.006,0.025l-0.006,0.025l-0.007,0.025l-0.007,0.025l-0.007,0.025l-0.008,0.025l-0.009,0.024l-0.008,0.024l-0.009,0.024l-0.01,0.023l-0.01,0.024l-0.01,0.023l-0.01,0.023l-0.011,0.022l-0.011,0.023l-0.012,0.022l-0.012,0.022l-0.012,0.021l-0.013,0.021l-0.013,0.021l-0.013,0.021l-0.013,0.021l-0.014,0.02l-0.014,0.02l-0.015,0.019l-0.015,0.019l-0.015,0.019l-0.015,0.019l-0.016,0.018l-0.016,0.018l-0.016,0.018l-0.016,0.017l-0.017,0.017l-0.017,0.017l-0.017,0.016l-0.018,0.016l-0.018,0.016l-0.018,0.015l-0.018,0.015l-0.019,0.014l-0.018,0.014l-0.019,0.014l-0.02,0.013l-0.019,0.013l-0.02,0.013l-0.02,0.012l-0.02,0.011l-0.021,0.011l-0.02,0.011l-0.021,0.01l-0.021,0.01l-0.021,0.01l-0.022,0.009l-0.022,0.008l-0.022,0.008l-0.022,0.007l-0.022,0.007l-0.022,0.007l-0.023,0.005l-0.023,0.006l-0.023,0.004l-0.023,0.004l-0.023,0.004l-0.023,0.003l-0.024,0.002l-0.023,0.002l-0.024,0.001l-0.024,0.001l-0.023,0l-0.024,-0.001l-0.024,-0.001l-0.024,-0.003l-0.024,-0.002l-0.024,-0.004l-0.024,-0.004l-0.024,-0.005l-0.024,-0.005l-0.023,-0.006l-0.024,-0.007l-0.024,-0.008l-0.023,-0.008l-0.023,-0.009l-0.023,-0.01l-0.023,-0.01l-0.023,-0.011l-0.023,-0.012l-0.022,-0.012l-0.022,-0.013l-0.022,-0.014l-0.022,-0.015l-0.021,-0.015l-0.022,-0.015l-0.02,-0.017l-0.021,-0.017l-0.02,-0.018l-0.02,-0.018l-0.02,-0.019l-0.02,-0.019l-0.019,-0.021l-0.019,-0.02l-0.018,-0.022l-0.019,-0.022l-0.017,-0.023l-0.018,-0.023l-0.017,-0.024l-0.017,-0.024l-0.017,-0.025l-0.016,-0.026l-0.016,-0.026l-0.016,-0.027l-0.015,-0.028l-0.005,-0.009l-0.009,0.006l-0.042,0.032l-0.046,0.034l-0.049,0.037l-0.051,0.039l-0.053,0.041l-0.056,0.043l-0.058,0.045l-0.122,0.095l-0.129,0.102l-0.134,0.106l-0.139,0.11l-0.143,0.114l-0.144,0.116l-0.146,0.117l-0.145,0.117l-0.144,0.117l-0.142,0.115l-0.139,0.112l-0.262,0.214l-0.235,0.191l-0.198,0.162l-0.153,0.126l-0.133,0.109l-0.049,0.031l-0.055,0.019l-0.057,0.004l-0.057,-0.009l-0.054,-0.022l-0.046,-0.035l-0.037,-0.044l-0.025,-0.053l-0.011,-0.056l0.002,-0.058l0.016,-0.056l0.028,-0.05l0.04,-0.042l0.134,-0.109l0.153,-0.126l0.198,-0.163l0.236,-0.191l0.262,-0.214l0.139,-0.113l0.143,-0.115l0.144,-0.117l0.146,-0.118l0.146,-0.118l0.146,-0.116l0.143,-0.114l0.139,-0.111l0.136,-0.107l0.13,-0.102l0.123,-0.097l0.059,-0.045l0.057,-0.044l0.055,-0.042l0.052,-0.04l0.05,-0.038l0.048,-0.036l0.045,-0.033l0.042,-0.031l0.039,-0.028l0.037,-0.026l0.034,-0.024l0.031,-0.02l0.028,-0.019l0.015,-0.009l0.014,-0.008l0.015,-0.008l0.016,-0.008l0.018,-0.008l0.013,-0.005l0.022,-0.007l0.005,-0.002l0.028,-0.006l0.002,0l0.029,-0.002l0.001,0l0.04,0.002l0.001,0Z" style="fill:#000;"/><path d="M32.458,51.785c0,0 0.151,-0.189 0.347,-0.434c0.551,-0.687 1.384,-1.087 2.265,-1.087c1.873,0 5.182,0 7.039,0c0.862,0 1.68,0.384 2.232,1.047c0.166,0.201 0.29,0.349 0.29,0.349" style="fill:none;stroke-width:0.5px;stroke:#000;"/><path d="M32.14,36.473c0.474,0.159 0.776,0.534 0.674,0.836c-0.102,0.303 -0.569,0.419 -1.042,0.26c-0.474,-0.159 -0.776,-0.534 -0.674,-0.837c0.102,-0.302 0.569,-0.419 1.042,-0.259Z" style="fill:#000;stroke-width:0.5px;stroke:#000;"/><path d="M45.452,36.473c-0.474,0.159 -0.776,0.534 -0.674,0.836c0.102,0.303 0.569,0.419 1.042,0.26c0.474,-0.159 0.776,-0.534 0.674,-0.837c-0.102,-0.302 -0.569,-0.419 -1.042,-0.259Z" style="fill:#000;stroke-width:0.5px;stroke:#000;"/><path d="M40.32,53.713l0.023,0.003l0.023,0.003l0.022,0.005l0.022,0.007l0.022,0.008l0.021,0.009l0.021,0.011l0.019,0.012l0.019,0.013l0.018,0.015l0.017,0.015l0.017,0.017l0.014,0.017l0.014,0.019l0.013,0.019l0.011,0.02l0.01,0.021l0.009,0.021l0.007,0.022l0.006,0.023l0.004,0.022l0.003,0.023l0.002,0.023l0,0.023l-0.002,0.023l-0.003,0.023l-0.004,0.023l-0.006,0.022l-0.007,0.022l-0.009,0.021l-0.01,0.021l-0.011,0.02l-0.013,0.02l-0.014,0.018l-0.014,0.018l-0.017,0.016l-0.017,0.016l-0.018,0.014l-0.019,0.013l-0.019,0.012l-0.021,0.011l-0.021,0.009l-0.022,0.008l-0.022,0.007l-0.022,0.005l-0.023,0.004l-0.023,0.002l-0.023,0.001l-3.71,0l-0.023,-0.001l-0.023,-0.002l-0.022,-0.004l-0.023,-0.005l-0.022,-0.007l-0.022,-0.008l-0.021,-0.009l-0.02,-0.011l-0.02,-0.012l-0.019,-0.013l-0.018,-0.014l-0.017,-0.016l-0.016,-0.016l-0.015,-0.018l-0.014,-0.018l-0.013,-0.02l-0.011,-0.02l-0.01,-0.021l-0.009,-0.021l-0.007,-0.022l-0.006,-0.022l-0.004,-0.023l-0.003,-0.023l-0.001,-0.023l0,-0.023l0.001,-0.023l0.003,-0.023l0.004,-0.022l0.006,-0.023l0.007,-0.022l0.009,-0.021l0.01,-0.021l0.011,-0.02l0.013,-0.019l0.014,-0.019l0.015,-0.017l0.016,-0.017l0.017,-0.015l0.018,-0.015l0.019,-0.013l0.02,-0.012l0.02,-0.011l0.021,-0.009l0.022,-0.008l0.022,-0.007l0.023,-0.005l0.022,-0.003l0.023,-0.003l0.023,0l3.71,0l0.023,0Z" style="fill:#000;"/><path d="M36.626,44.593l0.04,0.001l0.038,0.001l0.039,0.001l0.038,0.002l0.037,0.003l0.037,0.003l0.037,0.003l0.036,0.004l0.036,0.004l0.035,0.004l0.035,0.005l0.035,0.005l0.034,0.006l0.034,0.005l0.033,0.006l0.033,0.006l0.033,0.006l0.032,0.007l0.032,0.006l0.031,0.007l0.032,0.007l0.061,0.014l0.061,0.015l0.059,0.014l0.058,0.015l0.057,0.015l0.113,0.028l0.055,0.014l0.054,0.013l0.055,0.013l0.026,0.006l0.027,0.006l0.027,0.005l0.027,0.006l0.027,0.005l0.027,0.005l0.027,0.005l0.027,0.004l0.027,0.005l0.028,0.004l0.027,0.004l0.027,0.003l0.028,0.003l0.028,0.003l0.028,0.003l0.028,0.002l0.029,0.002l0.028,0.002l0.029,0.001l0.03,0.001l0.029,0.001l0.03,0l0.017,0l0.017,-0.001l0.018,-0.001l0.018,-0.001l0.02,-0.001l0.02,-0.002l0.021,-0.002l0.021,-0.003l0.022,-0.003l0.023,-0.003l0.023,-0.003l0.024,-0.004l0.024,-0.004l0.024,-0.004l0.026,-0.005l0.024,-0.005l0.053,-0.01l0.054,-0.012l0.054,-0.012l0.056,-0.013l0.057,-0.013l0.057,-0.014l0.118,-0.029l0.119,-0.029l0.06,-0.014l0.06,-0.014l0.06,-0.014l0.061,-0.014l0.06,-0.013l0.06,-0.012l0.031,-0.006l0.03,-0.005l0.03,-0.005l0.03,-0.005l0.03,-0.005l0.03,-0.005l0.03,-0.004l0.03,-0.004l0.03,-0.003l0.029,-0.003l0.03,-0.003l0.03,-0.002l0.03,-0.002l0.03,-0.001l0.03,-0.001l0.026,0l0.023,0l0.023,0.002l0.023,0.004l0.023,0.005l0.022,0.006l0.022,0.008l0.021,0.009l0.02,0.011l0.02,0.011l0.019,0.014l0.018,0.014l0.017,0.015l0.017,0.017l0.015,0.017l0.014,0.018l0.012,0.02l0.012,0.02l0.01,0.02l0.009,0.022l0.007,0.022l0.006,0.022l0.005,0.022l0.003,0.023l0.002,0.023l0,0.023l-0.001,0.023l-0.003,0.023l-0.004,0.023l-0.006,0.022l-0.007,0.022l-0.009,0.022l-0.01,0.021l-0.011,0.02l-0.012,0.019l-0.014,0.019l-0.015,0.018l-0.016,0.016l-0.017,0.016l-0.017,0.015l-0.019,0.013l-0.02,0.012l-0.02,0.011l-0.021,0.009l-0.022,0.008l-0.022,0.007l-0.022,0.005l-0.023,0.004l-0.023,0.003l-0.023,0.001l-0.02,0l-0.017,0l-0.017,0.001l-0.019,0.001l-0.019,0.002l-0.02,0.001l-0.021,0.003l-0.021,0.002l-0.022,0.003l-0.022,0.003l-0.023,0.003l-0.024,0.004l-0.024,0.004l-0.024,0.004l-0.025,0.005l-0.025,0.005l-0.053,0.01l-0.053,0.012l-0.055,0.012l-0.055,0.013l-0.057,0.013l-0.058,0.014l-0.117,0.029l-0.119,0.029l-0.06,0.014l-0.06,0.014l-0.061,0.014l-0.06,0.014l-0.061,0.013l-0.06,0.012l-0.03,0.006l-0.031,0.005l-0.03,0.006l-0.03,0.005l-0.03,0.004l-0.03,0.005l-0.03,0.004l-0.03,0.004l-0.03,0.003l-0.03,0.004l-0.03,0.002l-0.03,0.003l-0.03,0.001l-0.03,0.002l-0.03,0.001l-0.029,0l-0.04,0l-0.039,-0.001l-0.039,-0.001l-0.038,-0.002l-0.037,-0.002l-0.037,-0.003l-0.037,-0.003l-0.037,-0.003l-0.036,-0.004l-0.035,-0.004l-0.035,-0.005l-0.035,-0.005l-0.034,-0.005l-0.034,-0.005l-0.034,-0.006l-0.033,-0.006l-0.033,-0.006l-0.032,-0.006l-0.032,-0.007l-0.032,-0.006l-0.031,-0.007l-0.032,-0.007l-0.061,-0.014l-0.06,-0.015l-0.059,-0.014l-0.115,-0.03l-0.056,-0.014l-0.056,-0.014l-0.055,-0.014l-0.055,-0.013l-0.055,-0.012l-0.026,-0.006l-0.027,-0.006l-0.027,-0.006l-0.027,-0.005l-0.027,-0.005l-0.027,-0.005l-0.027,-0.005l-0.028,-0.005l-0.027,-0.004l-0.027,-0.004l-0.028,-0.004l-0.028,-0.003l-0.028,-0.003l-0.028,-0.003l-0.028,-0.003l-0.028,-0.002l-0.029,-0.002l-0.029,-0.002l-0.03,-0.001l-0.029,-0.001l-0.03,0l-0.033,0l-0.023,-0.001l-0.023,-0.003l-0.023,-0.003l-0.023,-0.006l-0.022,-0.006l-0.021,-0.008l-0.021,-0.01l-0.021,-0.01l-0.019,-0.013l-0.019,-0.013l-0.018,-0.014l-0.017,-0.016l-0.016,-0.017l-0.015,-0.017l-0.014,-0.019l-0.012,-0.019l-0.012,-0.02l-0.009,-0.021l-0.009,-0.022l-0.007,-0.021l-0.006,-0.023l-0.004,-0.022l-0.003,-0.023l-0.002,-0.023l0.001,-0.023l0.001,-0.024l0.003,-0.022l0.005,-0.023l0.006,-0.022l0.007,-0.022l0.009,-0.022l0.01,-0.02l0.011,-0.02l0.013,-0.02l0.014,-0.018l0.015,-0.018l0.016,-0.016l0.017,-0.016l0.018,-0.014l0.019,-0.013l0.02,-0.012l0.021,-0.01l0.021,-0.01l0.021,-0.008l0.023,-0.006l0.022,-0.005l0.023,-0.004l0.023,-0.002l0.023,0l0.037,0Z" style="fill:#000;"/><path d="M29.192,33.778l0.023,0.003l3.674,0.511l0.022,0.003l0.022,0.006l0.022,0.006l0.021,0.008l0.021,0.009l0.02,0.011l0.019,0.012l0.019,0.013l0.017,0.014l0.017,0.015l0.016,0.016l0.015,0.017l0.013,0.018l0.013,0.019l0.011,0.02l0.01,0.02l0.009,0.021l0.007,0.021l0.006,0.022l0.005,0.022l0.003,0.023l0.002,0.022l0,0.023l-0.001,0.022l-0.002,0.023l-0.004,0.022l-0.005,0.022l-0.007,0.022l-0.008,0.021l-0.009,0.021l-0.01,0.02l-0.012,0.019l-0.013,0.018l-0.014,0.018l-0.015,0.017l-0.017,0.016l-0.017,0.014l-0.018,0.014l-0.019,0.013l-0.019,0.011l-0.02,0.01l-0.021,0.009l-0.022,0.007l-0.022,0.006l-0.022,0.005l-0.022,0.003l-0.023,0.002l-0.022,0l-0.023,-0.001l-0.022,-0.002l-3.675,-0.511l-0.022,-0.004l-0.022,-0.005l-0.022,-0.007l-0.021,-0.008l-0.02,-0.009l-0.02,-0.011l-0.02,-0.011l-0.018,-0.013l-0.018,-0.014l-0.017,-0.016l-0.015,-0.016l-0.015,-0.017l-0.014,-0.018l-0.012,-0.019l-0.012,-0.019l-0.01,-0.021l-0.008,-0.021l-0.008,-0.021l-0.006,-0.022l-0.004,-0.022l-0.004,-0.022l-0.002,-0.023l0,-0.022l0.001,-0.023l0.002,-0.022l0.004,-0.023l0.005,-0.022l0.007,-0.021l0.008,-0.022l0.009,-0.02l0.011,-0.02l0.012,-0.02l0.012,-0.018l0.015,-0.018l0.015,-0.017l0.016,-0.015l0.017,-0.015l0.018,-0.014l0.019,-0.012l0.02,-0.012l0.02,-0.01l0.021,-0.008l0.021,-0.008l0.022,-0.006l0.022,-0.004l0.022,-0.004l0.023,-0.001l0.023,-0.001l0.022,0.001Z" style="fill:#000;"/><path d="M47.995,33.832l0.022,0.003l0.022,0.004l0.022,0.005l0.022,0.007l0.021,0.008l0.021,0.009l0.02,0.011l0.019,0.011l0.019,0.013l0.017,0.015l0.017,0.015l0.016,0.016l0.014,0.017l0.014,0.018l0.012,0.019l0.011,0.02l0.01,0.02l0.009,0.021l0.007,0.022l0.006,0.021l0.005,0.023l0.003,0.022l0.002,0.023l0,0.022l-0.001,0.023l-0.003,0.022l-0.004,0.022l-0.005,0.022l-0.006,0.022l-0.009,0.021l-0.009,0.021l-0.01,0.02l-0.012,0.019l-0.013,0.019l-0.014,0.017l-0.016,0.017l-0.016,0.016l-0.017,0.014l-0.018,0.014l-0.019,0.012l-0.02,0.011l-0.02,0.01l-0.021,0.009l-0.021,0.007l-0.022,0.006l-0.022,0.005l-0.023,0.003l-3.688,0.403l-0.022,0.002l-0.023,0l-0.022,-0.001l-0.023,-0.002l-0.022,-0.004l-0.022,-0.006l-0.022,-0.006l-0.021,-0.008l-0.02,-0.01l-0.02,-0.01l-0.02,-0.012l-0.018,-0.013l-0.018,-0.014l-0.016,-0.016l-0.016,-0.016l-0.015,-0.017l-0.013,-0.018l-0.013,-0.019l-0.011,-0.02l-0.01,-0.02l-0.009,-0.021l-0.007,-0.021l-0.006,-0.022l-0.004,-0.022l-0.004,-0.023l-0.001,-0.022l-0.001,-0.023l0.001,-0.022l0.003,-0.023l0.004,-0.022l0.005,-0.022l0.007,-0.022l0.008,-0.021l0.009,-0.021l0.011,-0.019l0.012,-0.02l0.013,-0.018l0.014,-0.018l0.015,-0.017l0.016,-0.015l0.018,-0.015l0.018,-0.014l0.019,-0.012l0.019,-0.011l0.021,-0.01l0.02,-0.009l0.022,-0.007l0.022,-0.006l0.022,-0.005l0.022,-0.003l3.688,-0.403l0.022,-0.002l0.023,0l0.023,0.001Z" style="fill:#000;"/></svg>